<svg xmlns="http://www.w3.org/2000/svg" width="900" height="290" style="font-family: -apple-system, BlinkMacSystemFont, 'Segoe UI', Helvetica, Arial, sans-serif;">
  <rect width="100%" height="100%" fill="white"/>
  <g>
    <line x1="40" y1="220.00" x2="860" y2="220.00" stroke="#e5e7eb"/><text x="32" y="224.00" font-size="10" fill="#111827" text-anchor="end">0</text><line x1="40" y1="175.00" x2="860" y2="175.00" stroke="#e5e7eb"/><text x="32" y="179.00" font-size="10" fill="#111827" text-anchor="end">500</text><line x1="40" y1="130.00" x2="860" y2="130.00" stroke="#e5e7eb"/><text x="32" y="134.00" font-size="10" fill="#111827" text-anchor="end">1k</text><line x1="40" y1="85.00" x2="860" y2="85.00" stroke="#e5e7eb"/><text x="32" y="89.00" font-size="10" fill="#111827" text-anchor="end">1.5k</text><line x1="40" y1="40.00" x2="860" y2="40.00" stroke="#e5e7eb"/><text x="32" y="44.00" font-size="10" fill="#111827" text-anchor="end">2k</text>
    <line x1="40.00" y1="40" x2="40.00" y2="220" stroke="#e5e7eb" opacity="0.5"/><line x1="120.94" y1="40" x2="120.94" y2="220" stroke="#e5e7eb" opacity="0.5"/><line x1="201.89" y1="40" x2="201.89" y2="220" stroke="#e5e7eb" opacity="0.5"/><line x1="282.83" y1="40" x2="282.83" y2="220" stroke="#e5e7eb" opacity="0.5"/><line x1="363.78" y1="40" x2="363.78" y2="220" stroke="#e5e7eb" opacity="0.5"/><line x1="444.72" y1="40" x2="444.72" y2="220" stroke="#e5e7eb" opacity="0.5"/><line x1="525.67" y1="40" x2="525.67" y2="220" stroke="#e5e7eb" opacity="0.5"/><line x1="606.61" y1="40" x2="606.61" y2="220" stroke="#e5e7eb" opacity="0.5"/><line x1="687.55" y1="40" x2="687.55" y2="220" stroke="#e5e7eb" opacity="0.5"/><line x1="768.50" y1="40" x2="768.50" y2="220" stroke="#e5e7eb" opacity="0.5"/><line x1="849.44" y1="40" x2="849.44" y2="220" stroke="#e5e7eb" opacity="0.5"/>
    <line x1="40" y1="220" x2="860" y2="220" stroke="#9ca3af"/>
    <line x1="40" y1="40"   x2="40"   y2="220" stroke="#9ca3af"/>
    <path d="M 40.00 219.82 L 43.52 211.81 L 47.04 211.81 L 50.56 211.81 L 54.08 171.85 L 57.60 171.58 L 61.12 164.38 L 64.64 118.93 L 68.15 119.11 L 71.67 111.10 L 75.19 110.56 L 78.71 110.56 L 82.23 110.56 L 85.75 95.35 L 89.27 95.35 L 92.79 95.35 L 96.31 94.63 L 99.83 94.54 L 103.35 94.45 L 106.87 94.09 L 110.39 94.09 L 113.91 94.09 L 117.42 94.09 L 120.94 94.09 L 124.46 94.09 L 127.98 94.09 L 131.50 94.09 L 135.02 94.09 L 138.54 91.84 L 142.06 83.65 L 145.58 83.65 L 149.10 83.47 L 152.62 83.65 L 156.14 91.03 L 159.66 91.03 L 163.18 91.03 L 166.70 91.03 L 170.21 91.03 L 173.73 91.03 L 177.25 91.03 L 180.77 91.03 L 184.29 91.03 L 187.81 91.03 L 191.33 91.03 L 194.85 90.94 L 198.37 91.03 L 201.89 90.94 L 205.41 90.94 L 208.93 90.94 L 212.45 90.94 L 215.97 90.94 L 219.48 90.94 L 223.00 90.94 L 226.52 90.94 L 230.04 90.94 L 233.56 90.94 L 237.08 90.94 L 240.60 90.94 L 244.12 90.94 L 247.64 90.94 L 251.16 90.94 L 254.68 90.94 L 258.20 90.94 L 261.72 90.94 L 265.24 90.94 L 268.76 90.94 L 272.27 90.94 L 275.79 90.94 L 279.31 90.94 L 282.83 90.94 L 286.35 90.94 L 289.87 123.79 L 293.39 123.79 L 296.91 123.79 L 300.43 123.79 L 303.95 123.79 L 307.47 123.79 L 310.99 123.79 L 314.51 123.79 L 318.03 123.79 L 321.55 123.79 L 325.06 123.79 L 328.58 123.79 L 332.10 123.79 L 335.62 123.79 L 339.14 123.79 L 342.66 123.79 L 346.18 123.79 L 349.70 123.79 L 353.22 123.79 L 356.74 123.79 L 360.26 123.79 L 363.78 123.79 L 367.30 123.79 L 370.82 123.79 L 374.33 123.79 L 377.85 123.79 L 381.37 123.79 L 384.89 123.79 L 388.41 123.79 L 391.93 123.79 L 395.45 123.79 L 398.97 123.79 L 402.49 123.79 L 406.01 123.79 L 409.53 123.79 L 413.05 123.79 L 416.57 123.79 L 420.09 123.79 L 423.61 123.79 L 427.12 123.79 L 430.64 123.79 L 434.16 123.79 L 437.68 123.79 L 441.20 123.79 L 444.72 123.79 L 448.24 123.79 L 451.76 123.79 L 455.28 123.79 L 458.80 123.79 L 462.32 123.79 L 465.84 123.79 L 469.36 123.79 L 472.88 123.79 L 476.39 123.79 L 479.91 123.79 L 483.43 123.79 L 486.95 123.79 L 490.47 123.79 L 493.99 123.79 L 497.51 123.79 L 501.03 123.79 L 504.55 123.79 L 508.07 123.79 L 511.59 123.79 L 515.11 123.79 L 518.63 123.79 L 522.15 123.79 L 525.67 123.79 L 529.18 123.79 L 532.70 123.79 L 536.22 123.79 L 539.74 123.79 L 543.26 123.79 L 546.78 123.79 L 550.30 123.79 L 553.82 123.79 L 557.34 123.79 L 560.86 115.42 L 564.38 111.64 L 567.90 107.86 L 571.42 104.08 L 574.94 100.30 L 578.45 95.98 L 581.97 95.98 L 585.49 95.98 L 589.01 95.98 L 592.53 85.72 L 596.05 85.72 L 599.57 85.72 L 603.09 85.72 L 606.61 85.72 L 610.13 85.72 L 613.65 85.72 L 617.17 85.72 L 620.69 85.72 L 624.21 85.72 L 627.73 85.72 L 631.24 85.72 L 634.76 85.72 L 638.28 85.72 L 641.80 85.72 L 645.32 85.72 L 648.84 85.72 L 652.36 85.72 L 655.88 85.72 L 659.40 85.72 L 662.92 85.72 L 666.44 85.72 L 669.96 85.72 L 673.48 85.72 L 677.00 85.72 L 680.52 85.72 L 684.03 85.72 L 687.55 85.72 L 691.07 85.72 L 694.59 85.72 L 698.11 85.72 L 701.63 85.72 L 705.15 85.72 L 708.67 85.72 L 712.19 85.72 L 715.71 85.72 L 719.23 85.72 L 722.75 85.72 L 726.27 85.72 L 729.79 85.72 L 733.30 85.72 L 736.82 85.72 L 740.34 85.72 L 743.86 85.72 L 747.38 85.72 L 750.90 85.72 L 754.42 85.72 L 757.94 85.72 L 761.46 85.72 L 764.98 85.72 L 768.50 85.72 L 772.02 85.72 L 775.54 85.72 L 779.06 85.72 L 782.58 85.72 L 786.09 85.72 L 789.61 85.72 L 793.13 85.72 L 796.65 85.72 L 800.17 85.72 L 803.69 85.72 L 807.21 85.72 L 810.73 85.72 L 814.25 85.72 L 817.77 85.72 L 821.29 85.72 L 824.81 85.72 L 828.33 85.72 L 831.85 85.72 L 835.36 85.72 L 838.88 85.72 L 842.40 85.72 L 845.92 85.72 L 849.44 85.72 L 852.96 85.72 L 856.48 85.72 L 860.00 85.72" fill="none" stroke="#111827" stroke-width="2"/>
    <circle cx="860.00" cy="85.72" r="3" fill="#111827"/>
    <text x="40.00" y="235.00" font-size="9" fill="#111827" text-anchor="middle" transform="rotate(-45 40.00 235.00)">09.08.2025</text><text x="120.94" y="235.00" font-size="9" fill="#111827" text-anchor="middle" transform="rotate(-45 120.94 235.00)">17.08.2025</text><text x="201.89" y="235.00" font-size="9" fill="#111827" text-anchor="middle" transform="rotate(-45 201.89 235.00)">28.08.2025</text><text x="282.83" y="235.00" font-size="9" fill="#111827" text-anchor="middle" transform="rotate(-45 282.83 235.00)">19.09.2025</text><text x="363.78" y="235.00" font-size="9" fill="#111827" text-anchor="middle" transform="rotate(-45 363.78 235.00)">10.10.2025</text><text x="444.72" y="235.00" font-size="9" fill="#111827" text-anchor="middle" transform="rotate(-45 444.72 235.00)">02.11.2025</text><text x="525.67" y="235.00" font-size="9" fill="#111827" text-anchor="middle" transform="rotate(-45 525.67 235.00)">25.11.2025</text><text x="606.61" y="235.00" font-size="9" fill="#111827" text-anchor="middle" transform="rotate(-45 606.61 235.00)">11.12.2025</text><text x="687.55" y="235.00" font-size="9" fill="#111827" text-anchor="middle" transform="rotate(-45 687.55 235.00)">03.01.2026</text><text x="768.50" y="235.00" font-size="9" fill="#111827" text-anchor="middle" transform="rotate(-45 768.50 235.00)">26.01.2026</text><text x="849.44" y="235.00" font-size="9" fill="#111827" text-anchor="middle" transform="rotate(-45 849.44 235.00)">18.02.2026</text>
  </g>
</svg>