<svg xmlns="http://www.w3.org/2000/svg" width="900" height="290" style="font-family: -apple-system, BlinkMacSystemFont, 'Segoe UI', Helvetica, Arial, sans-serif;">
  <rect width="100%" height="100%" fill="#0d1117"/>
  <g>
    <line x1="40" y1="220.00" x2="860" y2="220.00" stroke="#30363d"/><text x="32" y="224.00" font-size="10" fill="#c9d1d9" text-anchor="end">0</text><line x1="40" y1="175.00" x2="860" y2="175.00" stroke="#30363d"/><text x="32" y="179.00" font-size="10" fill="#c9d1d9" text-anchor="end">500</text><line x1="40" y1="130.00" x2="860" y2="130.00" stroke="#30363d"/><text x="32" y="134.00" font-size="10" fill="#c9d1d9" text-anchor="end">1k</text><line x1="40" y1="85.00" x2="860" y2="85.00" stroke="#30363d"/><text x="32" y="89.00" font-size="10" fill="#c9d1d9" text-anchor="end">1.5k</text><line x1="40" y1="40.00" x2="860" y2="40.00" stroke="#30363d"/><text x="32" y="44.00" font-size="10" fill="#c9d1d9" text-anchor="end">2k</text>
    <line x1="40.00" y1="40" x2="40.00" y2="220" stroke="#30363d" opacity="0.5"/><line x1="121.29" y1="40" x2="121.29" y2="220" stroke="#30363d" opacity="0.5"/><line x1="202.59" y1="40" x2="202.59" y2="220" stroke="#30363d" opacity="0.5"/><line x1="283.88" y1="40" x2="283.88" y2="220" stroke="#30363d" opacity="0.5"/><line x1="365.17" y1="40" x2="365.17" y2="220" stroke="#30363d" opacity="0.5"/><line x1="446.47" y1="40" x2="446.47" y2="220" stroke="#30363d" opacity="0.5"/><line x1="527.76" y1="40" x2="527.76" y2="220" stroke="#30363d" opacity="0.5"/><line x1="609.05" y1="40" x2="609.05" y2="220" stroke="#30363d" opacity="0.5"/><line x1="690.34" y1="40" x2="690.34" y2="220" stroke="#30363d" opacity="0.5"/><line x1="771.64" y1="40" x2="771.64" y2="220" stroke="#30363d" opacity="0.5"/><line x1="852.93" y1="40" x2="852.93" y2="220" stroke="#30363d" opacity="0.5"/>
    <line x1="40" y1="220" x2="860" y2="220" stroke="#30363d"/>
    <line x1="40" y1="40"   x2="40"   y2="220" stroke="#30363d"/>
    <path d="M 40.00 219.82 L 43.53 211.81 L 47.07 211.81 L 50.60 211.81 L 54.14 171.85 L 57.67 171.58 L 61.21 164.38 L 64.74 118.93 L 68.28 119.11 L 71.81 111.10 L 75.34 110.56 L 78.88 110.56 L 82.41 110.56 L 85.95 95.35 L 89.48 95.35 L 93.02 95.35 L 96.55 94.63 L 100.09 94.54 L 103.62 94.45 L 107.16 94.09 L 110.69 94.09 L 114.22 94.09 L 117.76 94.09 L 121.29 94.09 L 124.83 94.09 L 128.36 94.09 L 131.90 94.09 L 135.43 94.09 L 138.97 91.84 L 142.50 83.65 L 146.03 83.65 L 149.57 83.47 L 153.10 83.65 L 156.64 91.03 L 160.17 91.03 L 163.71 91.03 L 167.24 91.03 L 170.78 91.03 L 174.31 91.03 L 177.84 91.03 L 181.38 91.03 L 184.91 91.03 L 188.45 91.03 L 191.98 91.03 L 195.52 90.94 L 199.05 91.03 L 202.59 90.94 L 206.12 90.94 L 209.66 90.94 L 213.19 90.94 L 216.72 90.94 L 220.26 90.94 L 223.79 90.94 L 227.33 90.94 L 230.86 90.94 L 234.40 90.94 L 237.93 90.94 L 241.47 90.94 L 245.00 90.94 L 248.53 90.94 L 252.07 90.94 L 255.60 90.94 L 259.14 90.94 L 262.67 90.94 L 266.21 90.94 L 269.74 90.94 L 273.28 90.94 L 276.81 90.94 L 280.34 90.94 L 283.88 90.94 L 287.41 90.94 L 290.95 123.79 L 294.48 123.79 L 298.02 123.79 L 301.55 123.79 L 305.09 123.79 L 308.62 123.79 L 312.16 123.79 L 315.69 123.79 L 319.22 123.79 L 322.76 123.79 L 326.29 123.79 L 329.83 123.79 L 333.36 123.79 L 336.90 123.79 L 340.43 123.79 L 343.97 123.79 L 347.50 123.79 L 351.03 123.79 L 354.57 123.79 L 358.10 123.79 L 361.64 123.79 L 365.17 123.79 L 368.71 123.79 L 372.24 123.79 L 375.78 123.79 L 379.31 123.79 L 382.84 123.79 L 386.38 123.79 L 389.91 123.79 L 393.45 123.79 L 396.98 123.79 L 400.52 123.79 L 404.05 123.79 L 407.59 123.79 L 411.12 123.79 L 414.66 123.79 L 418.19 123.79 L 421.72 123.79 L 425.26 123.79 L 428.79 123.79 L 432.33 123.79 L 435.86 123.79 L 439.40 123.79 L 442.93 123.79 L 446.47 123.79 L 450.00 123.79 L 453.53 123.79 L 457.07 123.79 L 460.60 123.79 L 464.14 123.79 L 467.67 123.79 L 471.21 123.79 L 474.74 123.79 L 478.28 123.79 L 481.81 123.79 L 485.34 123.79 L 488.88 123.79 L 492.41 123.79 L 495.95 123.79 L 499.48 123.79 L 503.02 123.79 L 506.55 123.79 L 510.09 123.79 L 513.62 123.79 L 517.16 123.79 L 520.69 123.79 L 524.22 123.79 L 527.76 123.79 L 531.29 123.79 L 534.83 123.79 L 538.36 123.79 L 541.90 123.79 L 545.43 123.79 L 548.97 123.79 L 552.50 123.79 L 556.03 123.79 L 559.57 123.79 L 563.10 115.42 L 566.64 111.64 L 570.17 107.86 L 573.71 104.08 L 577.24 100.30 L 580.78 95.98 L 584.31 95.98 L 587.84 95.98 L 591.38 95.98 L 594.91 85.72 L 598.45 85.72 L 601.98 85.72 L 605.52 85.72 L 609.05 85.72 L 612.59 85.72 L 616.12 85.72 L 619.66 85.72 L 623.19 85.72 L 626.72 85.72 L 630.26 85.72 L 633.79 85.72 L 637.33 85.72 L 640.86 85.72 L 644.40 85.72 L 647.93 85.72 L 651.47 85.72 L 655.00 85.72 L 658.53 85.72 L 662.07 85.72 L 665.60 85.72 L 669.14 85.72 L 672.67 85.72 L 676.21 85.72 L 679.74 85.72 L 683.28 85.72 L 686.81 85.72 L 690.34 85.72 L 693.88 85.72 L 697.41 85.72 L 700.95 85.72 L 704.48 85.72 L 708.02 85.72 L 711.55 85.72 L 715.09 85.72 L 718.62 85.72 L 722.16 85.72 L 725.69 85.72 L 729.22 85.72 L 732.76 85.72 L 736.29 85.72 L 739.83 85.72 L 743.36 85.72 L 746.90 85.72 L 750.43 85.72 L 753.97 85.72 L 757.50 85.72 L 761.03 85.72 L 764.57 85.72 L 768.10 85.72 L 771.64 85.72 L 775.17 85.72 L 778.71 85.72 L 782.24 85.72 L 785.78 85.72 L 789.31 85.72 L 792.84 85.72 L 796.38 85.72 L 799.91 85.72 L 803.45 85.72 L 806.98 85.72 L 810.52 85.72 L 814.05 85.72 L 817.59 85.72 L 821.12 85.72 L 824.66 85.72 L 828.19 85.72 L 831.72 85.72 L 835.26 85.72 L 838.79 85.72 L 842.33 85.72 L 845.86 85.72 L 849.40 85.72 L 852.93 85.72 L 856.47 85.72 L 860.00 85.72" fill="none" stroke="#3fb950" stroke-width="2"/>
    <circle cx="860.00" cy="85.72" r="3" fill="#3fb950"/>
    <text x="40.00" y="235.00" font-size="9" fill="#c9d1d9" text-anchor="middle" transform="rotate(-45 40.00 235.00)">09.08.2025</text><text x="121.29" y="235.00" font-size="9" fill="#c9d1d9" text-anchor="middle" transform="rotate(-45 121.29 235.00)">17.08.2025</text><text x="202.59" y="235.00" font-size="9" fill="#c9d1d9" text-anchor="middle" transform="rotate(-45 202.59 235.00)">28.08.2025</text><text x="283.88" y="235.00" font-size="9" fill="#c9d1d9" text-anchor="middle" transform="rotate(-45 283.88 235.00)">19.09.2025</text><text x="365.17" y="235.00" font-size="9" fill="#c9d1d9" text-anchor="middle" transform="rotate(-45 365.17 235.00)">10.10.2025</text><text x="446.47" y="235.00" font-size="9" fill="#c9d1d9" text-anchor="middle" transform="rotate(-45 446.47 235.00)">02.11.2025</text><text x="527.76" y="235.00" font-size="9" fill="#c9d1d9" text-anchor="middle" transform="rotate(-45 527.76 235.00)">25.11.2025</text><text x="609.05" y="235.00" font-size="9" fill="#c9d1d9" text-anchor="middle" transform="rotate(-45 609.05 235.00)">11.12.2025</text><text x="690.34" y="235.00" font-size="9" fill="#c9d1d9" text-anchor="middle" transform="rotate(-45 690.34 235.00)">03.01.2026</text><text x="771.64" y="235.00" font-size="9" fill="#c9d1d9" text-anchor="middle" transform="rotate(-45 771.64 235.00)">26.01.2026</text><text x="852.93" y="235.00" font-size="9" fill="#c9d1d9" text-anchor="middle" transform="rotate(-45 852.93 235.00)">18.02.2026</text>
  </g>
</svg>