<svg xmlns="http://www.w3.org/2000/svg" width="900" height="290" style="font-family: -apple-system, BlinkMacSystemFont, 'Segoe UI', Helvetica, Arial, sans-serif;">
  <rect width="100%" height="100%" fill="#0d1117"/>
  <g>
    <line x1="40" y1="220.00" x2="860" y2="220.00" stroke="#30363d"/><text x="32" y="224.00" font-size="10" fill="#c9d1d9" text-anchor="end">0</text><line x1="40" y1="175.00" x2="860" y2="175.00" stroke="#30363d"/><text x="32" y="179.00" font-size="10" fill="#c9d1d9" text-anchor="end">500</text><line x1="40" y1="130.00" x2="860" y2="130.00" stroke="#30363d"/><text x="32" y="134.00" font-size="10" fill="#c9d1d9" text-anchor="end">1k</text><line x1="40" y1="85.00" x2="860" y2="85.00" stroke="#30363d"/><text x="32" y="89.00" font-size="10" fill="#c9d1d9" text-anchor="end">1.5k</text><line x1="40" y1="40.00" x2="860" y2="40.00" stroke="#30363d"/><text x="32" y="44.00" font-size="10" fill="#c9d1d9" text-anchor="end">2k</text>
    <line x1="40.00" y1="40" x2="40.00" y2="220" stroke="#30363d" opacity="0.5"/><line x1="119.47" y1="40" x2="119.47" y2="220" stroke="#30363d" opacity="0.5"/><line x1="198.94" y1="40" x2="198.94" y2="220" stroke="#30363d" opacity="0.5"/><line x1="278.41" y1="40" x2="278.41" y2="220" stroke="#30363d" opacity="0.5"/><line x1="357.89" y1="40" x2="357.89" y2="220" stroke="#30363d" opacity="0.5"/><line x1="437.36" y1="40" x2="437.36" y2="220" stroke="#30363d" opacity="0.5"/><line x1="516.83" y1="40" x2="516.83" y2="220" stroke="#30363d" opacity="0.5"/><line x1="596.30" y1="40" x2="596.30" y2="220" stroke="#30363d" opacity="0.5"/><line x1="675.77" y1="40" x2="675.77" y2="220" stroke="#30363d" opacity="0.5"/><line x1="755.24" y1="40" x2="755.24" y2="220" stroke="#30363d" opacity="0.5"/><line x1="834.71" y1="40" x2="834.71" y2="220" stroke="#30363d" opacity="0.5"/>
    <line x1="40" y1="220" x2="860" y2="220" stroke="#30363d"/>
    <line x1="40" y1="40"   x2="40"   y2="220" stroke="#30363d"/>
    <path d="M 40.00 219.82 L 43.61 211.81 L 47.22 211.81 L 50.84 211.81 L 54.45 171.85 L 58.06 171.58 L 61.67 164.38 L 65.29 118.93 L 68.90 119.11 L 72.51 111.10 L 76.12 110.56 L 79.74 110.56 L 83.35 110.56 L 86.96 95.35 L 90.57 95.35 L 94.19 95.35 L 97.80 94.63 L 101.41 94.54 L 105.02 94.45 L 108.63 94.09 L 112.25 94.09 L 115.86 94.09 L 119.47 94.09 L 123.08 94.09 L 126.70 94.09 L 130.31 94.09 L 133.92 94.09 L 137.53 94.09 L 141.15 91.84 L 144.76 83.65 L 148.37 83.65 L 151.98 83.47 L 155.59 83.65 L 159.21 91.03 L 162.82 91.03 L 166.43 91.03 L 170.04 91.03 L 173.66 91.03 L 177.27 91.03 L 180.88 91.03 L 184.49 91.03 L 188.11 91.03 L 191.72 91.03 L 195.33 91.03 L 198.94 90.94 L 202.56 91.03 L 206.17 90.94 L 209.78 90.94 L 213.39 90.94 L 217.00 90.94 L 220.62 90.94 L 224.23 90.94 L 227.84 90.94 L 231.45 90.94 L 235.07 90.94 L 238.68 90.94 L 242.29 90.94 L 245.90 90.94 L 249.52 90.94 L 253.13 90.94 L 256.74 90.94 L 260.35 90.94 L 263.96 90.94 L 267.58 90.94 L 271.19 90.94 L 274.80 90.94 L 278.41 90.94 L 282.03 90.94 L 285.64 90.94 L 289.25 90.94 L 292.86 90.94 L 296.48 123.79 L 300.09 123.79 L 303.70 123.79 L 307.31 123.79 L 310.93 123.79 L 314.54 123.79 L 318.15 123.79 L 321.76 123.79 L 325.37 123.79 L 328.99 123.79 L 332.60 123.79 L 336.21 123.79 L 339.82 123.79 L 343.44 123.79 L 347.05 123.79 L 350.66 123.79 L 354.27 123.79 L 357.89 123.79 L 361.50 123.79 L 365.11 123.79 L 368.72 123.79 L 372.33 123.79 L 375.95 123.79 L 379.56 123.79 L 383.17 123.79 L 386.78 123.79 L 390.40 123.79 L 394.01 123.79 L 397.62 123.79 L 401.23 123.79 L 404.85 123.79 L 408.46 123.79 L 412.07 123.79 L 415.68 123.79 L 419.30 123.79 L 422.91 123.79 L 426.52 123.79 L 430.13 123.79 L 433.74 123.79 L 437.36 123.79 L 440.97 123.79 L 444.58 123.79 L 448.19 123.79 L 451.81 123.79 L 455.42 123.79 L 459.03 123.79 L 462.64 123.79 L 466.26 123.79 L 469.87 123.79 L 473.48 123.79 L 477.09 123.79 L 480.70 123.79 L 484.32 123.79 L 487.93 123.79 L 491.54 123.79 L 495.15 123.79 L 498.77 123.79 L 502.38 123.79 L 505.99 123.79 L 509.60 123.79 L 513.22 123.79 L 516.83 123.79 L 520.44 123.79 L 524.05 123.79 L 527.67 123.79 L 531.28 123.79 L 534.89 123.79 L 538.50 123.79 L 542.11 123.79 L 545.73 123.79 L 549.34 123.79 L 552.95 123.79 L 556.56 123.79 L 560.18 123.79 L 563.79 123.79 L 567.40 123.79 L 571.01 123.79 L 574.63 115.42 L 578.24 111.64 L 581.85 107.86 L 585.46 104.08 L 589.07 100.30 L 592.69 95.98 L 596.30 95.98 L 599.91 95.98 L 603.52 95.98 L 607.14 85.72 L 610.75 85.72 L 614.36 85.72 L 617.97 85.72 L 621.59 85.72 L 625.20 85.72 L 628.81 85.72 L 632.42 85.72 L 636.04 85.72 L 639.65 85.72 L 643.26 85.72 L 646.87 85.72 L 650.48 85.72 L 654.10 85.72 L 657.71 85.72 L 661.32 85.72 L 664.93 85.72 L 668.55 85.72 L 672.16 85.72 L 675.77 85.72 L 679.38 85.72 L 683.00 85.72 L 686.61 85.72 L 690.22 85.72 L 693.83 85.72 L 697.44 85.72 L 701.06 85.72 L 704.67 85.72 L 708.28 85.72 L 711.89 85.72 L 715.51 85.72 L 719.12 85.72 L 722.73 85.72 L 726.34 85.72 L 729.96 85.72 L 733.57 85.72 L 737.18 85.72 L 740.79 85.72 L 744.41 85.72 L 748.02 85.72 L 751.63 85.72 L 755.24 85.72 L 758.85 85.72 L 762.47 85.72 L 766.08 85.72 L 769.69 85.72 L 773.30 85.72 L 776.92 85.72 L 780.53 85.72 L 784.14 85.72 L 787.75 85.72 L 791.37 85.72 L 794.98 85.72 L 798.59 85.72 L 802.20 85.72 L 805.81 85.72 L 809.43 85.72 L 813.04 85.72 L 816.65 85.72 L 820.26 85.72 L 823.88 85.72 L 827.49 85.72 L 831.10 85.72 L 834.71 85.72 L 838.33 85.72 L 841.94 85.72 L 845.55 85.72 L 849.16 85.72 L 852.78 85.72 L 856.39 85.72 L 860.00 85.72" fill="none" stroke="#3fb950" stroke-width="2"/>
    <circle cx="860.00" cy="85.72" r="3" fill="#3fb950"/>
    <text x="40.00" y="235.00" font-size="9" fill="#c9d1d9" text-anchor="middle" transform="rotate(-45 40.00 235.00)">09.08.2025</text><text x="119.47" y="235.00" font-size="9" fill="#c9d1d9" text-anchor="middle" transform="rotate(-45 119.47 235.00)">16.08.2025</text><text x="198.94" y="235.00" font-size="9" fill="#c9d1d9" text-anchor="middle" transform="rotate(-45 198.94 235.00)">28.08.2025</text><text x="278.41" y="235.00" font-size="9" fill="#c9d1d9" text-anchor="middle" transform="rotate(-45 278.41 235.00)">16.09.2025</text><text x="357.89" y="235.00" font-size="9" fill="#c9d1d9" text-anchor="middle" transform="rotate(-45 357.89 235.00)">06.10.2025</text><text x="437.36" y="235.00" font-size="9" fill="#c9d1d9" text-anchor="middle" transform="rotate(-45 437.36 235.00)">28.10.2025</text><text x="516.83" y="235.00" font-size="9" fill="#c9d1d9" text-anchor="middle" transform="rotate(-45 516.83 235.00)">19.11.2025</text><text x="596.30" y="235.00" font-size="9" fill="#c9d1d9" text-anchor="middle" transform="rotate(-45 596.30 235.00)">05.12.2025</text><text x="675.77" y="235.00" font-size="9" fill="#c9d1d9" text-anchor="middle" transform="rotate(-45 675.77 235.00)">26.12.2025</text><text x="755.24" y="235.00" font-size="9" fill="#c9d1d9" text-anchor="middle" transform="rotate(-45 755.24 235.00)">17.01.2026</text><text x="834.71" y="235.00" font-size="9" fill="#c9d1d9" text-anchor="middle" transform="rotate(-45 834.71 235.00)">08.02.2026</text>
  </g>
</svg>