<svg xmlns="http://www.w3.org/2000/svg" width="900" height="290" style="font-family: -apple-system, BlinkMacSystemFont, 'Segoe UI', Helvetica, Arial, sans-serif;">
  <rect width="100%" height="100%" fill="white"/>
  <g>
    <line x1="40" y1="220.00" x2="860" y2="220.00" stroke="#e5e7eb"/><text x="32" y="224.00" font-size="10" fill="#111827" text-anchor="end">0</text><line x1="40" y1="175.00" x2="860" y2="175.00" stroke="#e5e7eb"/><text x="32" y="179.00" font-size="10" fill="#111827" text-anchor="end">500</text><line x1="40" y1="130.00" x2="860" y2="130.00" stroke="#e5e7eb"/><text x="32" y="134.00" font-size="10" fill="#111827" text-anchor="end">1k</text><line x1="40" y1="85.00" x2="860" y2="85.00" stroke="#e5e7eb"/><text x="32" y="89.00" font-size="10" fill="#111827" text-anchor="end">1.5k</text><line x1="40" y1="40.00" x2="860" y2="40.00" stroke="#e5e7eb"/><text x="32" y="44.00" font-size="10" fill="#111827" text-anchor="end">2k</text>
    <line x1="40.00" y1="40" x2="40.00" y2="220" stroke="#e5e7eb" opacity="0.5"/><line x1="119.92" y1="40" x2="119.92" y2="220" stroke="#e5e7eb" opacity="0.5"/><line x1="199.83" y1="40" x2="199.83" y2="220" stroke="#e5e7eb" opacity="0.5"/><line x1="279.75" y1="40" x2="279.75" y2="220" stroke="#e5e7eb" opacity="0.5"/><line x1="359.66" y1="40" x2="359.66" y2="220" stroke="#e5e7eb" opacity="0.5"/><line x1="439.58" y1="40" x2="439.58" y2="220" stroke="#e5e7eb" opacity="0.5"/><line x1="519.49" y1="40" x2="519.49" y2="220" stroke="#e5e7eb" opacity="0.5"/><line x1="599.41" y1="40" x2="599.41" y2="220" stroke="#e5e7eb" opacity="0.5"/><line x1="679.32" y1="40" x2="679.32" y2="220" stroke="#e5e7eb" opacity="0.5"/><line x1="759.24" y1="40" x2="759.24" y2="220" stroke="#e5e7eb" opacity="0.5"/><line x1="839.15" y1="40" x2="839.15" y2="220" stroke="#e5e7eb" opacity="0.5"/>
    <line x1="40" y1="220" x2="860" y2="220" stroke="#9ca3af"/>
    <line x1="40" y1="40"   x2="40"   y2="220" stroke="#9ca3af"/>
    <path d="M 40.00 219.82 L 43.47 211.81 L 46.95 211.81 L 50.42 211.81 L 53.90 171.85 L 57.37 171.58 L 60.85 164.38 L 64.32 118.93 L 67.80 119.11 L 71.27 111.10 L 74.75 110.56 L 78.22 110.56 L 81.69 110.56 L 85.17 95.35 L 88.64 95.35 L 92.12 95.35 L 95.59 94.63 L 99.07 94.54 L 102.54 94.45 L 106.02 94.09 L 109.49 94.09 L 112.97 94.09 L 116.44 94.09 L 119.92 94.09 L 123.39 94.09 L 126.86 94.09 L 130.34 94.09 L 133.81 94.09 L 137.29 91.84 L 140.76 83.65 L 144.24 83.65 L 147.71 83.47 L 151.19 83.65 L 154.66 91.03 L 158.14 91.03 L 161.61 91.03 L 165.08 91.03 L 168.56 91.03 L 172.03 91.03 L 175.51 91.03 L 178.98 91.03 L 182.46 91.03 L 185.93 91.03 L 189.41 91.03 L 192.88 90.94 L 196.36 91.03 L 199.83 90.94 L 203.31 90.94 L 206.78 90.94 L 210.25 90.94 L 213.73 90.94 L 217.20 90.94 L 220.68 90.94 L 224.15 90.94 L 227.63 90.94 L 231.10 90.94 L 234.58 90.94 L 238.05 90.94 L 241.53 90.94 L 245.00 90.94 L 248.47 90.94 L 251.95 90.94 L 255.42 90.94 L 258.90 90.94 L 262.37 90.94 L 265.85 90.94 L 269.32 90.94 L 272.80 90.94 L 276.27 90.94 L 279.75 90.94 L 283.22 90.94 L 286.69 123.79 L 290.17 123.79 L 293.64 123.79 L 297.12 123.79 L 300.59 123.79 L 304.07 123.79 L 307.54 123.79 L 311.02 123.79 L 314.49 123.79 L 317.97 123.79 L 321.44 123.79 L 324.92 123.79 L 328.39 123.79 L 331.86 123.79 L 335.34 123.79 L 338.81 123.79 L 342.29 123.79 L 345.76 123.79 L 349.24 123.79 L 352.71 123.79 L 356.19 123.79 L 359.66 123.79 L 363.14 123.79 L 366.61 123.79 L 370.08 123.79 L 373.56 123.79 L 377.03 123.79 L 380.51 123.79 L 383.98 123.79 L 387.46 123.79 L 390.93 123.79 L 394.41 123.79 L 397.88 123.79 L 401.36 123.79 L 404.83 123.79 L 408.31 123.79 L 411.78 123.79 L 415.25 123.79 L 418.73 123.79 L 422.20 123.79 L 425.68 123.79 L 429.15 123.79 L 432.63 123.79 L 436.10 123.79 L 439.58 123.79 L 443.05 123.79 L 446.53 123.79 L 450.00 123.79 L 453.47 123.79 L 456.95 123.79 L 460.42 123.79 L 463.90 123.79 L 467.37 123.79 L 470.85 123.79 L 474.32 123.79 L 477.80 123.79 L 481.27 123.79 L 484.75 123.79 L 488.22 123.79 L 491.69 123.79 L 495.17 123.79 L 498.64 123.79 L 502.12 123.79 L 505.59 123.79 L 509.07 123.79 L 512.54 123.79 L 516.02 123.79 L 519.49 123.79 L 522.97 123.79 L 526.44 123.79 L 529.92 123.79 L 533.39 123.79 L 536.86 123.79 L 540.34 123.79 L 543.81 123.79 L 547.29 123.79 L 550.76 123.79 L 554.24 115.42 L 557.71 111.64 L 561.19 107.86 L 564.66 104.08 L 568.14 100.30 L 571.61 95.98 L 575.08 95.98 L 578.56 95.98 L 582.03 95.98 L 585.51 85.72 L 588.98 85.72 L 592.46 85.72 L 595.93 85.72 L 599.41 85.72 L 602.88 85.72 L 606.36 85.72 L 609.83 85.72 L 613.31 85.72 L 616.78 85.72 L 620.25 85.72 L 623.73 85.72 L 627.20 85.72 L 630.68 85.72 L 634.15 85.72 L 637.63 85.72 L 641.10 85.72 L 644.58 85.72 L 648.05 85.72 L 651.53 85.72 L 655.00 85.72 L 658.47 85.72 L 661.95 85.72 L 665.42 85.72 L 668.90 85.72 L 672.37 85.72 L 675.85 85.72 L 679.32 85.72 L 682.80 85.72 L 686.27 85.72 L 689.75 85.72 L 693.22 85.72 L 696.69 85.72 L 700.17 85.72 L 703.64 85.72 L 707.12 85.72 L 710.59 85.72 L 714.07 85.72 L 717.54 85.72 L 721.02 85.72 L 724.49 85.72 L 727.97 85.72 L 731.44 85.72 L 734.92 85.72 L 738.39 85.72 L 741.86 85.72 L 745.34 85.72 L 748.81 85.72 L 752.29 85.72 L 755.76 85.72 L 759.24 85.72 L 762.71 85.72 L 766.19 85.72 L 769.66 85.72 L 773.14 85.72 L 776.61 85.72 L 780.08 85.72 L 783.56 85.72 L 787.03 85.72 L 790.51 85.72 L 793.98 85.72 L 797.46 85.72 L 800.93 85.72 L 804.41 85.72 L 807.88 85.72 L 811.36 85.72 L 814.83 85.72 L 818.31 85.72 L 821.78 85.72 L 825.25 85.72 L 828.73 85.72 L 832.20 85.72 L 835.68 85.72 L 839.15 85.72 L 842.63 85.72 L 846.10 85.72 L 849.58 85.72 L 853.05 85.72 L 856.53 85.72 L 860.00 85.72" fill="none" stroke="#111827" stroke-width="2"/>
    <circle cx="860.00" cy="85.72" r="3" fill="#111827"/>
    <text x="40.00" y="235.00" font-size="9" fill="#111827" text-anchor="middle" transform="rotate(-45 40.00 235.00)">09.08.2025</text><text x="119.92" y="235.00" font-size="9" fill="#111827" text-anchor="middle" transform="rotate(-45 119.92 235.00)">17.08.2025</text><text x="199.83" y="235.00" font-size="9" fill="#111827" text-anchor="middle" transform="rotate(-45 199.83 235.00)">28.08.2025</text><text x="279.75" y="235.00" font-size="9" fill="#111827" text-anchor="middle" transform="rotate(-45 279.75 235.00)">19.09.2025</text><text x="359.66" y="235.00" font-size="9" fill="#111827" text-anchor="middle" transform="rotate(-45 359.66 235.00)">10.10.2025</text><text x="439.58" y="235.00" font-size="9" fill="#111827" text-anchor="middle" transform="rotate(-45 439.58 235.00)">02.11.2025</text><text x="519.49" y="235.00" font-size="9" fill="#111827" text-anchor="middle" transform="rotate(-45 519.49 235.00)">25.11.2025</text><text x="599.41" y="235.00" font-size="9" fill="#111827" text-anchor="middle" transform="rotate(-45 599.41 235.00)">11.12.2025</text><text x="679.32" y="235.00" font-size="9" fill="#111827" text-anchor="middle" transform="rotate(-45 679.32 235.00)">03.01.2026</text><text x="759.24" y="235.00" font-size="9" fill="#111827" text-anchor="middle" transform="rotate(-45 759.24 235.00)">26.01.2026</text><text x="839.15" y="235.00" font-size="9" fill="#111827" text-anchor="middle" transform="rotate(-45 839.15 235.00)">18.02.2026</text>
  </g>
</svg>