<svg xmlns="http://www.w3.org/2000/svg" width="900" height="290" style="font-family: -apple-system, BlinkMacSystemFont, 'Segoe UI', Helvetica, Arial, sans-serif;">
  <rect width="100%" height="100%" fill="#0d1117"/>
  <g>
    <line x1="40" y1="220.00" x2="860" y2="220.00" stroke="#30363d"/><text x="32" y="224.00" font-size="10" fill="#c9d1d9" text-anchor="end">0</text><line x1="40" y1="175.00" x2="860" y2="175.00" stroke="#30363d"/><text x="32" y="179.00" font-size="10" fill="#c9d1d9" text-anchor="end">500</text><line x1="40" y1="130.00" x2="860" y2="130.00" stroke="#30363d"/><text x="32" y="134.00" font-size="10" fill="#c9d1d9" text-anchor="end">1k</text><line x1="40" y1="85.00" x2="860" y2="85.00" stroke="#30363d"/><text x="32" y="89.00" font-size="10" fill="#c9d1d9" text-anchor="end">1.5k</text><line x1="40" y1="40.00" x2="860" y2="40.00" stroke="#30363d"/><text x="32" y="44.00" font-size="10" fill="#c9d1d9" text-anchor="end">2k</text>
    <line x1="40.00" y1="40" x2="40.00" y2="220" stroke="#30363d" opacity="0.5"/><line x1="122.34" y1="40" x2="122.34" y2="220" stroke="#30363d" opacity="0.5"/><line x1="204.69" y1="40" x2="204.69" y2="220" stroke="#30363d" opacity="0.5"/><line x1="287.03" y1="40" x2="287.03" y2="220" stroke="#30363d" opacity="0.5"/><line x1="369.37" y1="40" x2="369.37" y2="220" stroke="#30363d" opacity="0.5"/><line x1="451.72" y1="40" x2="451.72" y2="220" stroke="#30363d" opacity="0.5"/><line x1="534.06" y1="40" x2="534.06" y2="220" stroke="#30363d" opacity="0.5"/><line x1="616.40" y1="40" x2="616.40" y2="220" stroke="#30363d" opacity="0.5"/><line x1="698.74" y1="40" x2="698.74" y2="220" stroke="#30363d" opacity="0.5"/><line x1="781.09" y1="40" x2="781.09" y2="220" stroke="#30363d" opacity="0.5"/>
    <line x1="40" y1="220" x2="860" y2="220" stroke="#30363d"/>
    <line x1="40" y1="40"   x2="40"   y2="220" stroke="#30363d"/>
    <path d="M 40.00 219.82 L 43.43 211.81 L 46.86 211.81 L 50.29 211.81 L 53.72 171.85 L 57.15 171.58 L 60.59 164.38 L 64.02 118.93 L 67.45 119.11 L 70.88 111.10 L 74.31 110.56 L 77.74 110.56 L 81.17 110.56 L 84.60 95.35 L 88.03 95.35 L 91.46 95.35 L 94.90 94.63 L 98.33 94.54 L 101.76 94.45 L 105.19 94.09 L 108.62 94.09 L 112.05 94.09 L 115.48 94.09 L 118.91 94.09 L 122.34 94.09 L 125.77 94.09 L 129.21 94.09 L 132.64 94.09 L 136.07 91.84 L 139.50 83.65 L 142.93 83.65 L 146.36 83.47 L 149.79 83.65 L 153.22 91.03 L 156.65 91.03 L 160.08 91.03 L 163.51 91.03 L 166.95 91.03 L 170.38 91.03 L 173.81 91.03 L 177.24 91.03 L 180.67 91.03 L 184.10 91.03 L 187.53 91.03 L 190.96 90.94 L 194.39 91.03 L 197.82 90.94 L 201.26 90.94 L 204.69 90.94 L 208.12 90.94 L 211.55 90.94 L 214.98 90.94 L 218.41 90.94 L 221.84 90.94 L 225.27 90.94 L 228.70 90.94 L 232.13 90.94 L 235.56 90.94 L 239.00 90.94 L 242.43 90.94 L 245.86 90.94 L 249.29 90.94 L 252.72 90.94 L 256.15 90.94 L 259.58 90.94 L 263.01 90.94 L 266.44 90.94 L 269.87 90.94 L 273.31 90.94 L 276.74 90.94 L 280.17 90.94 L 283.60 123.79 L 287.03 123.79 L 290.46 123.79 L 293.89 123.79 L 297.32 123.79 L 300.75 123.79 L 304.18 123.79 L 307.62 123.79 L 311.05 123.79 L 314.48 123.79 L 317.91 123.79 L 321.34 123.79 L 324.77 123.79 L 328.20 123.79 L 331.63 123.79 L 335.06 123.79 L 338.49 123.79 L 341.92 123.79 L 345.36 123.79 L 348.79 123.79 L 352.22 123.79 L 355.65 123.79 L 359.08 123.79 L 362.51 123.79 L 365.94 123.79 L 369.37 123.79 L 372.80 123.79 L 376.23 123.79 L 379.67 123.79 L 383.10 123.79 L 386.53 123.79 L 389.96 123.79 L 393.39 123.79 L 396.82 123.79 L 400.25 123.79 L 403.68 123.79 L 407.11 123.79 L 410.54 123.79 L 413.97 123.79 L 417.41 123.79 L 420.84 123.79 L 424.27 123.79 L 427.70 123.79 L 431.13 123.79 L 434.56 123.79 L 437.99 123.79 L 441.42 123.79 L 444.85 123.79 L 448.28 123.79 L 451.72 123.79 L 455.15 123.79 L 458.58 123.79 L 462.01 123.79 L 465.44 123.79 L 468.87 123.79 L 472.30 123.79 L 475.73 123.79 L 479.16 123.79 L 482.59 123.79 L 486.03 123.79 L 489.46 123.79 L 492.89 123.79 L 496.32 123.79 L 499.75 123.79 L 503.18 123.79 L 506.61 123.79 L 510.04 123.79 L 513.47 123.79 L 516.90 123.79 L 520.33 123.79 L 523.77 123.79 L 527.20 123.79 L 530.63 123.79 L 534.06 123.79 L 537.49 123.79 L 540.92 123.79 L 544.35 123.79 L 547.78 115.42 L 551.21 111.64 L 554.64 107.86 L 558.08 104.08 L 561.51 100.30 L 564.94 95.98 L 568.37 95.98 L 571.80 95.98 L 575.23 95.98 L 578.66 85.72 L 582.09 85.72 L 585.52 85.72 L 588.95 85.72 L 592.38 85.72 L 595.82 85.72 L 599.25 85.72 L 602.68 85.72 L 606.11 85.72 L 609.54 85.72 L 612.97 85.72 L 616.40 85.72 L 619.83 85.72 L 623.26 85.72 L 626.69 85.72 L 630.13 85.72 L 633.56 85.72 L 636.99 85.72 L 640.42 85.72 L 643.85 85.72 L 647.28 85.72 L 650.71 85.72 L 654.14 85.72 L 657.57 85.72 L 661.00 85.72 L 664.44 85.72 L 667.87 85.72 L 671.30 85.72 L 674.73 85.72 L 678.16 85.72 L 681.59 85.72 L 685.02 85.72 L 688.45 85.72 L 691.88 85.72 L 695.31 85.72 L 698.74 85.72 L 702.18 85.72 L 705.61 85.72 L 709.04 85.72 L 712.47 85.72 L 715.90 85.72 L 719.33 85.72 L 722.76 85.72 L 726.19 85.72 L 729.62 85.72 L 733.05 85.72 L 736.49 85.72 L 739.92 85.72 L 743.35 85.72 L 746.78 85.72 L 750.21 85.72 L 753.64 85.72 L 757.07 85.72 L 760.50 85.72 L 763.93 85.72 L 767.36 85.72 L 770.79 85.72 L 774.23 85.72 L 777.66 85.72 L 781.09 85.72 L 784.52 85.72 L 787.95 85.72 L 791.38 85.72 L 794.81 85.72 L 798.24 85.72 L 801.67 85.72 L 805.10 85.72 L 808.54 85.72 L 811.97 85.72 L 815.40 85.72 L 818.83 85.72 L 822.26 85.72 L 825.69 85.72 L 829.12 85.72 L 832.55 85.72 L 835.98 85.72 L 839.41 85.72 L 842.85 85.72 L 846.28 85.72 L 849.71 85.72 L 853.14 85.72 L 856.57 85.72 L 860.00 85.72" fill="none" stroke="#3fb950" stroke-width="2"/>
    <circle cx="860.00" cy="85.72" r="3" fill="#3fb950"/>
    <text x="40.00" y="235.00" font-size="9" fill="#c9d1d9" text-anchor="middle" transform="rotate(-45 40.00 235.00)">09.08.2025</text><text x="122.34" y="235.00" font-size="9" fill="#c9d1d9" text-anchor="middle" transform="rotate(-45 122.34 235.00)">18.08.2025</text><text x="204.69" y="235.00" font-size="9" fill="#c9d1d9" text-anchor="middle" transform="rotate(-45 204.69 235.00)">29.08.2025</text><text x="287.03" y="235.00" font-size="9" fill="#c9d1d9" text-anchor="middle" transform="rotate(-45 287.03 235.00)">21.09.2025</text><text x="369.37" y="235.00" font-size="9" fill="#c9d1d9" text-anchor="middle" transform="rotate(-45 369.37 235.00)">14.10.2025</text><text x="451.72" y="235.00" font-size="9" fill="#c9d1d9" text-anchor="middle" transform="rotate(-45 451.72 235.00)">07.11.2025</text><text x="534.06" y="235.00" font-size="9" fill="#c9d1d9" text-anchor="middle" transform="rotate(-45 534.06 235.00)">01.12.2025</text><text x="616.40" y="235.00" font-size="9" fill="#c9d1d9" text-anchor="middle" transform="rotate(-45 616.40 235.00)">18.12.2025</text><text x="698.74" y="235.00" font-size="9" fill="#c9d1d9" text-anchor="middle" transform="rotate(-45 698.74 235.00)">11.01.2026</text><text x="781.09" y="235.00" font-size="9" fill="#c9d1d9" text-anchor="middle" transform="rotate(-45 781.09 235.00)">04.02.2026</text>
  </g>
</svg>