<svg xmlns="http://www.w3.org/2000/svg" width="900" height="290" style="font-family: -apple-system, BlinkMacSystemFont, 'Segoe UI', Helvetica, Arial, sans-serif;">
  <rect width="100%" height="100%" fill="#0d1117"/>
  <g>
    <line x1="40" y1="220.00" x2="860" y2="220.00" stroke="#30363d"/><text x="32" y="224.00" font-size="10" fill="#c9d1d9" text-anchor="end">0</text><line x1="40" y1="175.00" x2="860" y2="175.00" stroke="#30363d"/><text x="32" y="179.00" font-size="10" fill="#c9d1d9" text-anchor="end">500</text><line x1="40" y1="130.00" x2="860" y2="130.00" stroke="#30363d"/><text x="32" y="134.00" font-size="10" fill="#c9d1d9" text-anchor="end">1k</text><line x1="40" y1="85.00" x2="860" y2="85.00" stroke="#30363d"/><text x="32" y="89.00" font-size="10" fill="#c9d1d9" text-anchor="end">1.5k</text><line x1="40" y1="40.00" x2="860" y2="40.00" stroke="#30363d"/><text x="32" y="44.00" font-size="10" fill="#c9d1d9" text-anchor="end">2k</text>
    <line x1="40.00" y1="40" x2="40.00" y2="220" stroke="#30363d" opacity="0.5"/><line x1="120.60" y1="40" x2="120.60" y2="220" stroke="#30363d" opacity="0.5"/><line x1="201.20" y1="40" x2="201.20" y2="220" stroke="#30363d" opacity="0.5"/><line x1="281.79" y1="40" x2="281.79" y2="220" stroke="#30363d" opacity="0.5"/><line x1="362.39" y1="40" x2="362.39" y2="220" stroke="#30363d" opacity="0.5"/><line x1="442.99" y1="40" x2="442.99" y2="220" stroke="#30363d" opacity="0.5"/><line x1="523.59" y1="40" x2="523.59" y2="220" stroke="#30363d" opacity="0.5"/><line x1="604.19" y1="40" x2="604.19" y2="220" stroke="#30363d" opacity="0.5"/><line x1="684.79" y1="40" x2="684.79" y2="220" stroke="#30363d" opacity="0.5"/><line x1="765.38" y1="40" x2="765.38" y2="220" stroke="#30363d" opacity="0.5"/><line x1="845.98" y1="40" x2="845.98" y2="220" stroke="#30363d" opacity="0.5"/>
    <line x1="40" y1="220" x2="860" y2="220" stroke="#30363d"/>
    <line x1="40" y1="40"   x2="40"   y2="220" stroke="#30363d"/>
    <path d="M 40.00 219.82 L 43.50 211.81 L 47.01 211.81 L 50.51 211.81 L 54.02 171.85 L 57.52 171.58 L 61.03 164.38 L 64.53 118.93 L 68.03 119.11 L 71.54 111.10 L 75.04 110.56 L 78.55 110.56 L 82.05 110.56 L 85.56 95.35 L 89.06 95.35 L 92.56 95.35 L 96.07 94.63 L 99.57 94.54 L 103.08 94.45 L 106.58 94.09 L 110.09 94.09 L 113.59 94.09 L 117.09 94.09 L 120.60 94.09 L 124.10 94.09 L 127.61 94.09 L 131.11 94.09 L 134.62 94.09 L 138.12 91.84 L 141.62 83.65 L 145.13 83.65 L 148.63 83.47 L 152.14 83.65 L 155.64 91.03 L 159.15 91.03 L 162.65 91.03 L 166.15 91.03 L 169.66 91.03 L 173.16 91.03 L 176.67 91.03 L 180.17 91.03 L 183.68 91.03 L 187.18 91.03 L 190.68 91.03 L 194.19 90.94 L 197.69 91.03 L 201.20 90.94 L 204.70 90.94 L 208.21 90.94 L 211.71 90.94 L 215.21 90.94 L 218.72 90.94 L 222.22 90.94 L 225.73 90.94 L 229.23 90.94 L 232.74 90.94 L 236.24 90.94 L 239.74 90.94 L 243.25 90.94 L 246.75 90.94 L 250.26 90.94 L 253.76 90.94 L 257.26 90.94 L 260.77 90.94 L 264.27 90.94 L 267.78 90.94 L 271.28 90.94 L 274.79 90.94 L 278.29 90.94 L 281.79 90.94 L 285.30 90.94 L 288.80 123.79 L 292.31 123.79 L 295.81 123.79 L 299.32 123.79 L 302.82 123.79 L 306.32 123.79 L 309.83 123.79 L 313.33 123.79 L 316.84 123.79 L 320.34 123.79 L 323.85 123.79 L 327.35 123.79 L 330.85 123.79 L 334.36 123.79 L 337.86 123.79 L 341.37 123.79 L 344.87 123.79 L 348.38 123.79 L 351.88 123.79 L 355.38 123.79 L 358.89 123.79 L 362.39 123.79 L 365.90 123.79 L 369.40 123.79 L 372.91 123.79 L 376.41 123.79 L 379.91 123.79 L 383.42 123.79 L 386.92 123.79 L 390.43 123.79 L 393.93 123.79 L 397.44 123.79 L 400.94 123.79 L 404.44 123.79 L 407.95 123.79 L 411.45 123.79 L 414.96 123.79 L 418.46 123.79 L 421.97 123.79 L 425.47 123.79 L 428.97 123.79 L 432.48 123.79 L 435.98 123.79 L 439.49 123.79 L 442.99 123.79 L 446.50 123.79 L 450.00 123.79 L 453.50 123.79 L 457.01 123.79 L 460.51 123.79 L 464.02 123.79 L 467.52 123.79 L 471.03 123.79 L 474.53 123.79 L 478.03 123.79 L 481.54 123.79 L 485.04 123.79 L 488.55 123.79 L 492.05 123.79 L 495.56 123.79 L 499.06 123.79 L 502.56 123.79 L 506.07 123.79 L 509.57 123.79 L 513.08 123.79 L 516.58 123.79 L 520.09 123.79 L 523.59 123.79 L 527.09 123.79 L 530.60 123.79 L 534.10 123.79 L 537.61 123.79 L 541.11 123.79 L 544.62 123.79 L 548.12 123.79 L 551.62 123.79 L 555.13 123.79 L 558.63 115.42 L 562.14 111.64 L 565.64 107.86 L 569.15 104.08 L 572.65 100.30 L 576.15 95.98 L 579.66 95.98 L 583.16 95.98 L 586.67 95.98 L 590.17 85.72 L 593.68 85.72 L 597.18 85.72 L 600.68 85.72 L 604.19 85.72 L 607.69 85.72 L 611.20 85.72 L 614.70 85.72 L 618.21 85.72 L 621.71 85.72 L 625.21 85.72 L 628.72 85.72 L 632.22 85.72 L 635.73 85.72 L 639.23 85.72 L 642.74 85.72 L 646.24 85.72 L 649.74 85.72 L 653.25 85.72 L 656.75 85.72 L 660.26 85.72 L 663.76 85.72 L 667.26 85.72 L 670.77 85.72 L 674.27 85.72 L 677.78 85.72 L 681.28 85.72 L 684.79 85.72 L 688.29 85.72 L 691.79 85.72 L 695.30 85.72 L 698.80 85.72 L 702.31 85.72 L 705.81 85.72 L 709.32 85.72 L 712.82 85.72 L 716.32 85.72 L 719.83 85.72 L 723.33 85.72 L 726.84 85.72 L 730.34 85.72 L 733.85 85.72 L 737.35 85.72 L 740.85 85.72 L 744.36 85.72 L 747.86 85.72 L 751.37 85.72 L 754.87 85.72 L 758.38 85.72 L 761.88 85.72 L 765.38 85.72 L 768.89 85.72 L 772.39 85.72 L 775.90 85.72 L 779.40 85.72 L 782.91 85.72 L 786.41 85.72 L 789.91 85.72 L 793.42 85.72 L 796.92 85.72 L 800.43 85.72 L 803.93 85.72 L 807.44 85.72 L 810.94 85.72 L 814.44 85.72 L 817.95 85.72 L 821.45 85.72 L 824.96 85.72 L 828.46 85.72 L 831.97 85.72 L 835.47 85.72 L 838.97 85.72 L 842.48 85.72 L 845.98 85.72 L 849.49 85.72 L 852.99 85.72 L 856.50 85.72 L 860.00 85.72" fill="none" stroke="#3fb950" stroke-width="2"/>
    <circle cx="860.00" cy="85.72" r="3" fill="#3fb950"/>
    <text x="40.00" y="235.00" font-size="9" fill="#c9d1d9" text-anchor="middle" transform="rotate(-45 40.00 235.00)">09.08.2025</text><text x="120.60" y="235.00" font-size="9" fill="#c9d1d9" text-anchor="middle" transform="rotate(-45 120.60 235.00)">17.08.2025</text><text x="201.20" y="235.00" font-size="9" fill="#c9d1d9" text-anchor="middle" transform="rotate(-45 201.20 235.00)">28.08.2025</text><text x="281.79" y="235.00" font-size="9" fill="#c9d1d9" text-anchor="middle" transform="rotate(-45 281.79 235.00)">19.09.2025</text><text x="362.39" y="235.00" font-size="9" fill="#c9d1d9" text-anchor="middle" transform="rotate(-45 362.39 235.00)">10.10.2025</text><text x="442.99" y="235.00" font-size="9" fill="#c9d1d9" text-anchor="middle" transform="rotate(-45 442.99 235.00)">02.11.2025</text><text x="523.59" y="235.00" font-size="9" fill="#c9d1d9" text-anchor="middle" transform="rotate(-45 523.59 235.00)">25.11.2025</text><text x="604.19" y="235.00" font-size="9" fill="#c9d1d9" text-anchor="middle" transform="rotate(-45 604.19 235.00)">11.12.2025</text><text x="684.79" y="235.00" font-size="9" fill="#c9d1d9" text-anchor="middle" transform="rotate(-45 684.79 235.00)">03.01.2026</text><text x="765.38" y="235.00" font-size="9" fill="#c9d1d9" text-anchor="middle" transform="rotate(-45 765.38 235.00)">26.01.2026</text><text x="845.98" y="235.00" font-size="9" fill="#c9d1d9" text-anchor="middle" transform="rotate(-45 845.98 235.00)">18.02.2026</text>
  </g>
</svg>