<svg xmlns="http://www.w3.org/2000/svg" width="900" height="290" style="font-family: -apple-system, BlinkMacSystemFont, 'Segoe UI', Helvetica, Arial, sans-serif;">
  <rect width="100%" height="100%" fill="white"/>
  <g>
    <line x1="40" y1="220.00" x2="860" y2="220.00" stroke="#e5e7eb"/><text x="32" y="224.00" font-size="10" fill="#111827" text-anchor="end">0</text><line x1="40" y1="175.00" x2="860" y2="175.00" stroke="#e5e7eb"/><text x="32" y="179.00" font-size="10" fill="#111827" text-anchor="end">500</text><line x1="40" y1="130.00" x2="860" y2="130.00" stroke="#e5e7eb"/><text x="32" y="134.00" font-size="10" fill="#111827" text-anchor="end">1k</text><line x1="40" y1="85.00" x2="860" y2="85.00" stroke="#e5e7eb"/><text x="32" y="89.00" font-size="10" fill="#111827" text-anchor="end">1.5k</text><line x1="40" y1="40.00" x2="860" y2="40.00" stroke="#e5e7eb"/><text x="32" y="44.00" font-size="10" fill="#111827" text-anchor="end">2k</text>
    <line x1="40.00" y1="40" x2="40.00" y2="220" stroke="#e5e7eb" opacity="0.5"/><line x1="119.24" y1="40" x2="119.24" y2="220" stroke="#e5e7eb" opacity="0.5"/><line x1="198.49" y1="40" x2="198.49" y2="220" stroke="#e5e7eb" opacity="0.5"/><line x1="277.73" y1="40" x2="277.73" y2="220" stroke="#e5e7eb" opacity="0.5"/><line x1="356.97" y1="40" x2="356.97" y2="220" stroke="#e5e7eb" opacity="0.5"/><line x1="436.22" y1="40" x2="436.22" y2="220" stroke="#e5e7eb" opacity="0.5"/><line x1="515.46" y1="40" x2="515.46" y2="220" stroke="#e5e7eb" opacity="0.5"/><line x1="594.71" y1="40" x2="594.71" y2="220" stroke="#e5e7eb" opacity="0.5"/><line x1="673.95" y1="40" x2="673.95" y2="220" stroke="#e5e7eb" opacity="0.5"/><line x1="753.19" y1="40" x2="753.19" y2="220" stroke="#e5e7eb" opacity="0.5"/><line x1="832.44" y1="40" x2="832.44" y2="220" stroke="#e5e7eb" opacity="0.5"/>
    <line x1="40" y1="220" x2="860" y2="220" stroke="#9ca3af"/>
    <line x1="40" y1="40"   x2="40"   y2="220" stroke="#9ca3af"/>
    <path d="M 40.00 219.82 L 43.45 211.81 L 46.89 211.81 L 50.34 211.81 L 53.78 171.85 L 57.23 171.58 L 60.67 164.38 L 64.12 118.93 L 67.56 119.11 L 71.01 111.10 L 74.45 110.56 L 77.90 110.56 L 81.34 110.56 L 84.79 95.35 L 88.24 95.35 L 91.68 95.35 L 95.13 94.63 L 98.57 94.54 L 102.02 94.45 L 105.46 94.09 L 108.91 94.09 L 112.35 94.09 L 115.80 94.09 L 119.24 94.09 L 122.69 94.09 L 126.13 94.09 L 129.58 94.09 L 133.03 94.09 L 136.47 91.84 L 139.92 83.65 L 143.36 83.65 L 146.81 83.47 L 150.25 83.65 L 153.70 91.03 L 157.14 91.03 L 160.59 91.03 L 164.03 91.03 L 167.48 91.03 L 170.92 91.03 L 174.37 91.03 L 177.82 91.03 L 181.26 91.03 L 184.71 91.03 L 188.15 91.03 L 191.60 90.94 L 195.04 91.03 L 198.49 90.94 L 201.93 90.94 L 205.38 90.94 L 208.82 90.94 L 212.27 90.94 L 215.71 90.94 L 219.16 90.94 L 222.61 90.94 L 226.05 90.94 L 229.50 90.94 L 232.94 90.94 L 236.39 90.94 L 239.83 90.94 L 243.28 90.94 L 246.72 90.94 L 250.17 90.94 L 253.61 90.94 L 257.06 90.94 L 260.50 90.94 L 263.95 90.94 L 267.39 90.94 L 270.84 90.94 L 274.29 90.94 L 277.73 90.94 L 281.18 90.94 L 284.62 123.79 L 288.07 123.79 L 291.51 123.79 L 294.96 123.79 L 298.40 123.79 L 301.85 123.79 L 305.29 123.79 L 308.74 123.79 L 312.18 123.79 L 315.63 123.79 L 319.08 123.79 L 322.52 123.79 L 325.97 123.79 L 329.41 123.79 L 332.86 123.79 L 336.30 123.79 L 339.75 123.79 L 343.19 123.79 L 346.64 123.79 L 350.08 123.79 L 353.53 123.79 L 356.97 123.79 L 360.42 123.79 L 363.87 123.79 L 367.31 123.79 L 370.76 123.79 L 374.20 123.79 L 377.65 123.79 L 381.09 123.79 L 384.54 123.79 L 387.98 123.79 L 391.43 123.79 L 394.87 123.79 L 398.32 123.79 L 401.76 123.79 L 405.21 123.79 L 408.66 123.79 L 412.10 123.79 L 415.55 123.79 L 418.99 123.79 L 422.44 123.79 L 425.88 123.79 L 429.33 123.79 L 432.77 123.79 L 436.22 123.79 L 439.66 123.79 L 443.11 123.79 L 446.55 123.79 L 450.00 123.79 L 453.45 123.79 L 456.89 123.79 L 460.34 123.79 L 463.78 123.79 L 467.23 123.79 L 470.67 123.79 L 474.12 123.79 L 477.56 123.79 L 481.01 123.79 L 484.45 123.79 L 487.90 123.79 L 491.34 123.79 L 494.79 123.79 L 498.24 123.79 L 501.68 123.79 L 505.13 123.79 L 508.57 123.79 L 512.02 123.79 L 515.46 123.79 L 518.91 123.79 L 522.35 123.79 L 525.80 123.79 L 529.24 123.79 L 532.69 123.79 L 536.13 123.79 L 539.58 123.79 L 543.03 123.79 L 546.47 123.79 L 549.92 115.42 L 553.36 111.64 L 556.81 107.86 L 560.25 104.08 L 563.70 100.30 L 567.14 95.98 L 570.59 95.98 L 574.03 95.98 L 577.48 95.98 L 580.92 85.72 L 584.37 85.72 L 587.82 85.72 L 591.26 85.72 L 594.71 85.72 L 598.15 85.72 L 601.60 85.72 L 605.04 85.72 L 608.49 85.72 L 611.93 85.72 L 615.38 85.72 L 618.82 85.72 L 622.27 85.72 L 625.71 85.72 L 629.16 85.72 L 632.61 85.72 L 636.05 85.72 L 639.50 85.72 L 642.94 85.72 L 646.39 85.72 L 649.83 85.72 L 653.28 85.72 L 656.72 85.72 L 660.17 85.72 L 663.61 85.72 L 667.06 85.72 L 670.50 85.72 L 673.95 85.72 L 677.39 85.72 L 680.84 85.72 L 684.29 85.72 L 687.73 85.72 L 691.18 85.72 L 694.62 85.72 L 698.07 85.72 L 701.51 85.72 L 704.96 85.72 L 708.40 85.72 L 711.85 85.72 L 715.29 85.72 L 718.74 85.72 L 722.18 85.72 L 725.63 85.72 L 729.08 85.72 L 732.52 85.72 L 735.97 85.72 L 739.41 85.72 L 742.86 85.72 L 746.30 85.72 L 749.75 85.72 L 753.19 85.72 L 756.64 85.72 L 760.08 85.72 L 763.53 85.72 L 766.97 85.72 L 770.42 85.72 L 773.87 85.72 L 777.31 85.72 L 780.76 85.72 L 784.20 85.72 L 787.65 85.72 L 791.09 85.72 L 794.54 85.72 L 797.98 85.72 L 801.43 85.72 L 804.87 85.72 L 808.32 85.72 L 811.76 85.72 L 815.21 85.72 L 818.66 85.72 L 822.10 85.72 L 825.55 85.72 L 828.99 85.72 L 832.44 85.72 L 835.88 85.72 L 839.33 85.72 L 842.77 85.72 L 846.22 85.72 L 849.66 85.72 L 853.11 85.72 L 856.55 85.72 L 860.00 85.72" fill="none" stroke="#111827" stroke-width="2"/>
    <circle cx="860.00" cy="85.72" r="3" fill="#111827"/>
    <text x="40.00" y="235.00" font-size="9" fill="#111827" text-anchor="middle" transform="rotate(-45 40.00 235.00)">09.08.2025</text><text x="119.24" y="235.00" font-size="9" fill="#111827" text-anchor="middle" transform="rotate(-45 119.24 235.00)">17.08.2025</text><text x="198.49" y="235.00" font-size="9" fill="#111827" text-anchor="middle" transform="rotate(-45 198.49 235.00)">28.08.2025</text><text x="277.73" y="235.00" font-size="9" fill="#111827" text-anchor="middle" transform="rotate(-45 277.73 235.00)">19.09.2025</text><text x="356.97" y="235.00" font-size="9" fill="#111827" text-anchor="middle" transform="rotate(-45 356.97 235.00)">10.10.2025</text><text x="436.22" y="235.00" font-size="9" fill="#111827" text-anchor="middle" transform="rotate(-45 436.22 235.00)">02.11.2025</text><text x="515.46" y="235.00" font-size="9" fill="#111827" text-anchor="middle" transform="rotate(-45 515.46 235.00)">25.11.2025</text><text x="594.71" y="235.00" font-size="9" fill="#111827" text-anchor="middle" transform="rotate(-45 594.71 235.00)">11.12.2025</text><text x="673.95" y="235.00" font-size="9" fill="#111827" text-anchor="middle" transform="rotate(-45 673.95 235.00)">03.01.2026</text><text x="753.19" y="235.00" font-size="9" fill="#111827" text-anchor="middle" transform="rotate(-45 753.19 235.00)">26.01.2026</text><text x="832.44" y="235.00" font-size="9" fill="#111827" text-anchor="middle" transform="rotate(-45 832.44 235.00)">18.02.2026</text>
  </g>
</svg>