<svg xmlns="http://www.w3.org/2000/svg" width="900" height="290" style="font-family: -apple-system, BlinkMacSystemFont, 'Segoe UI', Helvetica, Arial, sans-serif;">
  <rect width="100%" height="100%" fill="white"/>
  <g>
    <line x1="40" y1="220.00" x2="860" y2="220.00" stroke="#e5e7eb"/><text x="32" y="224.00" font-size="10" fill="#111827" text-anchor="end">0</text><line x1="40" y1="175.00" x2="860" y2="175.00" stroke="#e5e7eb"/><text x="32" y="179.00" font-size="10" fill="#111827" text-anchor="end">500</text><line x1="40" y1="130.00" x2="860" y2="130.00" stroke="#e5e7eb"/><text x="32" y="134.00" font-size="10" fill="#111827" text-anchor="end">1k</text><line x1="40" y1="85.00" x2="860" y2="85.00" stroke="#e5e7eb"/><text x="32" y="89.00" font-size="10" fill="#111827" text-anchor="end">1.5k</text><line x1="40" y1="40.00" x2="860" y2="40.00" stroke="#e5e7eb"/><text x="32" y="44.00" font-size="10" fill="#111827" text-anchor="end">2k</text>
    <line x1="40.00" y1="40" x2="40.00" y2="220" stroke="#e5e7eb" opacity="0.5"/><line x1="122.00" y1="40" x2="122.00" y2="220" stroke="#e5e7eb" opacity="0.5"/><line x1="204.00" y1="40" x2="204.00" y2="220" stroke="#e5e7eb" opacity="0.5"/><line x1="286.00" y1="40" x2="286.00" y2="220" stroke="#e5e7eb" opacity="0.5"/><line x1="368.00" y1="40" x2="368.00" y2="220" stroke="#e5e7eb" opacity="0.5"/><line x1="450.00" y1="40" x2="450.00" y2="220" stroke="#e5e7eb" opacity="0.5"/><line x1="532.00" y1="40" x2="532.00" y2="220" stroke="#e5e7eb" opacity="0.5"/><line x1="614.00" y1="40" x2="614.00" y2="220" stroke="#e5e7eb" opacity="0.5"/><line x1="696.00" y1="40" x2="696.00" y2="220" stroke="#e5e7eb" opacity="0.5"/><line x1="778.00" y1="40" x2="778.00" y2="220" stroke="#e5e7eb" opacity="0.5"/><line x1="860.00" y1="40" x2="860.00" y2="220" stroke="#e5e7eb" opacity="0.5"/>
    <line x1="40" y1="220" x2="860" y2="220" stroke="#9ca3af"/>
    <line x1="40" y1="40"   x2="40"   y2="220" stroke="#9ca3af"/>
    <path d="M 40.00 219.82 L 43.57 211.81 L 47.13 211.81 L 50.70 211.81 L 54.26 171.85 L 57.83 171.58 L 61.39 164.38 L 64.96 118.93 L 68.52 119.11 L 72.09 111.10 L 75.65 110.56 L 79.22 110.56 L 82.78 110.56 L 86.35 95.35 L 89.91 95.35 L 93.48 95.35 L 97.04 94.63 L 100.61 94.54 L 104.17 94.45 L 107.74 94.09 L 111.30 94.09 L 114.87 94.09 L 118.43 94.09 L 122.00 94.09 L 125.57 94.09 L 129.13 94.09 L 132.70 94.09 L 136.26 94.09 L 139.83 91.84 L 143.39 83.65 L 146.96 83.65 L 150.52 83.47 L 154.09 83.65 L 157.65 91.03 L 161.22 91.03 L 164.78 91.03 L 168.35 91.03 L 171.91 91.03 L 175.48 91.03 L 179.04 91.03 L 182.61 91.03 L 186.17 91.03 L 189.74 91.03 L 193.30 91.03 L 196.87 90.94 L 200.43 91.03 L 204.00 90.94 L 207.57 90.94 L 211.13 90.94 L 214.70 90.94 L 218.26 90.94 L 221.83 90.94 L 225.39 90.94 L 228.96 90.94 L 232.52 90.94 L 236.09 90.94 L 239.65 90.94 L 243.22 90.94 L 246.78 90.94 L 250.35 90.94 L 253.91 90.94 L 257.48 90.94 L 261.04 90.94 L 264.61 90.94 L 268.17 90.94 L 271.74 90.94 L 275.30 90.94 L 278.87 90.94 L 282.43 90.94 L 286.00 90.94 L 289.57 90.94 L 293.13 123.79 L 296.70 123.79 L 300.26 123.79 L 303.83 123.79 L 307.39 123.79 L 310.96 123.79 L 314.52 123.79 L 318.09 123.79 L 321.65 123.79 L 325.22 123.79 L 328.78 123.79 L 332.35 123.79 L 335.91 123.79 L 339.48 123.79 L 343.04 123.79 L 346.61 123.79 L 350.17 123.79 L 353.74 123.79 L 357.30 123.79 L 360.87 123.79 L 364.43 123.79 L 368.00 123.79 L 371.57 123.79 L 375.13 123.79 L 378.70 123.79 L 382.26 123.79 L 385.83 123.79 L 389.39 123.79 L 392.96 123.79 L 396.52 123.79 L 400.09 123.79 L 403.65 123.79 L 407.22 123.79 L 410.78 123.79 L 414.35 123.79 L 417.91 123.79 L 421.48 123.79 L 425.04 123.79 L 428.61 123.79 L 432.17 123.79 L 435.74 123.79 L 439.30 123.79 L 442.87 123.79 L 446.43 123.79 L 450.00 123.79 L 453.57 123.79 L 457.13 123.79 L 460.70 123.79 L 464.26 123.79 L 467.83 123.79 L 471.39 123.79 L 474.96 123.79 L 478.52 123.79 L 482.09 123.79 L 485.65 123.79 L 489.22 123.79 L 492.78 123.79 L 496.35 123.79 L 499.91 123.79 L 503.48 123.79 L 507.04 123.79 L 510.61 123.79 L 514.17 123.79 L 517.74 123.79 L 521.30 123.79 L 524.87 123.79 L 528.43 123.79 L 532.00 123.79 L 535.57 123.79 L 539.13 123.79 L 542.70 123.79 L 546.26 123.79 L 549.83 123.79 L 553.39 123.79 L 556.96 123.79 L 560.52 123.79 L 564.09 123.79 L 567.65 115.42 L 571.22 111.64 L 574.78 107.86 L 578.35 104.08 L 581.91 100.30 L 585.48 95.98 L 589.04 95.98 L 592.61 95.98 L 596.17 95.98 L 599.74 85.72 L 603.30 85.72 L 606.87 85.72 L 610.43 85.72 L 614.00 85.72 L 617.57 85.72 L 621.13 85.72 L 624.70 85.72 L 628.26 85.72 L 631.83 85.72 L 635.39 85.72 L 638.96 85.72 L 642.52 85.72 L 646.09 85.72 L 649.65 85.72 L 653.22 85.72 L 656.78 85.72 L 660.35 85.72 L 663.91 85.72 L 667.48 85.72 L 671.04 85.72 L 674.61 85.72 L 678.17 85.72 L 681.74 85.72 L 685.30 85.72 L 688.87 85.72 L 692.43 85.72 L 696.00 85.72 L 699.57 85.72 L 703.13 85.72 L 706.70 85.72 L 710.26 85.72 L 713.83 85.72 L 717.39 85.72 L 720.96 85.72 L 724.52 85.72 L 728.09 85.72 L 731.65 85.72 L 735.22 85.72 L 738.78 85.72 L 742.35 85.72 L 745.91 85.72 L 749.48 85.72 L 753.04 85.72 L 756.61 85.72 L 760.17 85.72 L 763.74 85.72 L 767.30 85.72 L 770.87 85.72 L 774.43 85.72 L 778.00 85.72 L 781.57 85.72 L 785.13 85.72 L 788.70 85.72 L 792.26 85.72 L 795.83 85.72 L 799.39 85.72 L 802.96 85.72 L 806.52 85.72 L 810.09 85.72 L 813.65 85.72 L 817.22 85.72 L 820.78 85.72 L 824.35 85.72 L 827.91 85.72 L 831.48 85.72 L 835.04 85.72 L 838.61 85.72 L 842.17 85.72 L 845.74 85.72 L 849.30 85.72 L 852.87 85.72 L 856.43 85.72 L 860.00 85.72" fill="none" stroke="#111827" stroke-width="2"/>
    <circle cx="860.00" cy="85.72" r="3" fill="#111827"/>
    <text x="40.00" y="235.00" font-size="9" fill="#111827" text-anchor="middle" transform="rotate(-45 40.00 235.00)">09.08.2025</text><text x="122.00" y="235.00" font-size="9" fill="#111827" text-anchor="middle" transform="rotate(-45 122.00 235.00)">17.08.2025</text><text x="204.00" y="235.00" font-size="9" fill="#111827" text-anchor="middle" transform="rotate(-45 204.00 235.00)">28.08.2025</text><text x="286.00" y="235.00" font-size="9" fill="#111827" text-anchor="middle" transform="rotate(-45 286.00 235.00)">19.09.2025</text><text x="368.00" y="235.00" font-size="9" fill="#111827" text-anchor="middle" transform="rotate(-45 368.00 235.00)">10.10.2025</text><text x="450.00" y="235.00" font-size="9" fill="#111827" text-anchor="middle" transform="rotate(-45 450.00 235.00)">02.11.2025</text><text x="532.00" y="235.00" font-size="9" fill="#111827" text-anchor="middle" transform="rotate(-45 532.00 235.00)">25.11.2025</text><text x="614.00" y="235.00" font-size="9" fill="#111827" text-anchor="middle" transform="rotate(-45 614.00 235.00)">11.12.2025</text><text x="696.00" y="235.00" font-size="9" fill="#111827" text-anchor="middle" transform="rotate(-45 696.00 235.00)">03.01.2026</text><text x="778.00" y="235.00" font-size="9" fill="#111827" text-anchor="middle" transform="rotate(-45 778.00 235.00)">26.01.2026</text><text x="860.00" y="235.00" font-size="9" fill="#111827" text-anchor="middle" transform="rotate(-45 860.00 235.00)">18.02.2026</text>
  </g>
</svg>