<svg xmlns="http://www.w3.org/2000/svg" width="900" height="290" style="font-family: -apple-system, BlinkMacSystemFont, 'Segoe UI', Helvetica, Arial, sans-serif;">
  <rect width="100%" height="100%" fill="#0d1117"/>
  <g>
    <line x1="40" y1="220.00" x2="860" y2="220.00" stroke="#30363d"/><text x="32" y="224.00" font-size="10" fill="#c9d1d9" text-anchor="end">0</text><line x1="40" y1="175.00" x2="860" y2="175.00" stroke="#30363d"/><text x="32" y="179.00" font-size="10" fill="#c9d1d9" text-anchor="end">500</text><line x1="40" y1="130.00" x2="860" y2="130.00" stroke="#30363d"/><text x="32" y="134.00" font-size="10" fill="#c9d1d9" text-anchor="end">1k</text><line x1="40" y1="85.00" x2="860" y2="85.00" stroke="#30363d"/><text x="32" y="89.00" font-size="10" fill="#c9d1d9" text-anchor="end">1.5k</text><line x1="40" y1="40.00" x2="860" y2="40.00" stroke="#30363d"/><text x="32" y="44.00" font-size="10" fill="#c9d1d9" text-anchor="end">2k</text>
    <line x1="40.00" y1="40" x2="40.00" y2="220" stroke="#30363d" opacity="0.5"/><line x1="120.26" y1="40" x2="120.26" y2="220" stroke="#30363d" opacity="0.5"/><line x1="200.51" y1="40" x2="200.51" y2="220" stroke="#30363d" opacity="0.5"/><line x1="280.77" y1="40" x2="280.77" y2="220" stroke="#30363d" opacity="0.5"/><line x1="361.02" y1="40" x2="361.02" y2="220" stroke="#30363d" opacity="0.5"/><line x1="441.28" y1="40" x2="441.28" y2="220" stroke="#30363d" opacity="0.5"/><line x1="521.53" y1="40" x2="521.53" y2="220" stroke="#30363d" opacity="0.5"/><line x1="601.79" y1="40" x2="601.79" y2="220" stroke="#30363d" opacity="0.5"/><line x1="682.04" y1="40" x2="682.04" y2="220" stroke="#30363d" opacity="0.5"/><line x1="762.30" y1="40" x2="762.30" y2="220" stroke="#30363d" opacity="0.5"/><line x1="842.55" y1="40" x2="842.55" y2="220" stroke="#30363d" opacity="0.5"/>
    <line x1="40" y1="220" x2="860" y2="220" stroke="#30363d"/>
    <line x1="40" y1="40"   x2="40"   y2="220" stroke="#30363d"/>
    <path d="M 40.00 219.82 L 43.49 211.81 L 46.98 211.81 L 50.47 211.81 L 53.96 171.85 L 57.45 171.58 L 60.94 164.38 L 64.43 118.93 L 67.91 119.11 L 71.40 111.10 L 74.89 110.56 L 78.38 110.56 L 81.87 110.56 L 85.36 95.35 L 88.85 95.35 L 92.34 95.35 L 95.83 94.63 L 99.32 94.54 L 102.81 94.45 L 106.30 94.09 L 109.79 94.09 L 113.28 94.09 L 116.77 94.09 L 120.26 94.09 L 123.74 94.09 L 127.23 94.09 L 130.72 94.09 L 134.21 94.09 L 137.70 91.84 L 141.19 83.65 L 144.68 83.65 L 148.17 83.47 L 151.66 83.65 L 155.15 91.03 L 158.64 91.03 L 162.13 91.03 L 165.62 91.03 L 169.11 91.03 L 172.60 91.03 L 176.09 91.03 L 179.57 91.03 L 183.06 91.03 L 186.55 91.03 L 190.04 91.03 L 193.53 90.94 L 197.02 91.03 L 200.51 90.94 L 204.00 90.94 L 207.49 90.94 L 210.98 90.94 L 214.47 90.94 L 217.96 90.94 L 221.45 90.94 L 224.94 90.94 L 228.43 90.94 L 231.91 90.94 L 235.40 90.94 L 238.89 90.94 L 242.38 90.94 L 245.87 90.94 L 249.36 90.94 L 252.85 90.94 L 256.34 90.94 L 259.83 90.94 L 263.32 90.94 L 266.81 90.94 L 270.30 90.94 L 273.79 90.94 L 277.28 90.94 L 280.77 90.94 L 284.26 90.94 L 287.74 123.79 L 291.23 123.79 L 294.72 123.79 L 298.21 123.79 L 301.70 123.79 L 305.19 123.79 L 308.68 123.79 L 312.17 123.79 L 315.66 123.79 L 319.15 123.79 L 322.64 123.79 L 326.13 123.79 L 329.62 123.79 L 333.11 123.79 L 336.60 123.79 L 340.09 123.79 L 343.57 123.79 L 347.06 123.79 L 350.55 123.79 L 354.04 123.79 L 357.53 123.79 L 361.02 123.79 L 364.51 123.79 L 368.00 123.79 L 371.49 123.79 L 374.98 123.79 L 378.47 123.79 L 381.96 123.79 L 385.45 123.79 L 388.94 123.79 L 392.43 123.79 L 395.91 123.79 L 399.40 123.79 L 402.89 123.79 L 406.38 123.79 L 409.87 123.79 L 413.36 123.79 L 416.85 123.79 L 420.34 123.79 L 423.83 123.79 L 427.32 123.79 L 430.81 123.79 L 434.30 123.79 L 437.79 123.79 L 441.28 123.79 L 444.77 123.79 L 448.26 123.79 L 451.74 123.79 L 455.23 123.79 L 458.72 123.79 L 462.21 123.79 L 465.70 123.79 L 469.19 123.79 L 472.68 123.79 L 476.17 123.79 L 479.66 123.79 L 483.15 123.79 L 486.64 123.79 L 490.13 123.79 L 493.62 123.79 L 497.11 123.79 L 500.60 123.79 L 504.09 123.79 L 507.57 123.79 L 511.06 123.79 L 514.55 123.79 L 518.04 123.79 L 521.53 123.79 L 525.02 123.79 L 528.51 123.79 L 532.00 123.79 L 535.49 123.79 L 538.98 123.79 L 542.47 123.79 L 545.96 123.79 L 549.45 123.79 L 552.94 123.79 L 556.43 115.42 L 559.91 111.64 L 563.40 107.86 L 566.89 104.08 L 570.38 100.30 L 573.87 95.98 L 577.36 95.98 L 580.85 95.98 L 584.34 95.98 L 587.83 85.72 L 591.32 85.72 L 594.81 85.72 L 598.30 85.72 L 601.79 85.72 L 605.28 85.72 L 608.77 85.72 L 612.26 85.72 L 615.74 85.72 L 619.23 85.72 L 622.72 85.72 L 626.21 85.72 L 629.70 85.72 L 633.19 85.72 L 636.68 85.72 L 640.17 85.72 L 643.66 85.72 L 647.15 85.72 L 650.64 85.72 L 654.13 85.72 L 657.62 85.72 L 661.11 85.72 L 664.60 85.72 L 668.09 85.72 L 671.57 85.72 L 675.06 85.72 L 678.55 85.72 L 682.04 85.72 L 685.53 85.72 L 689.02 85.72 L 692.51 85.72 L 696.00 85.72 L 699.49 85.72 L 702.98 85.72 L 706.47 85.72 L 709.96 85.72 L 713.45 85.72 L 716.94 85.72 L 720.43 85.72 L 723.91 85.72 L 727.40 85.72 L 730.89 85.72 L 734.38 85.72 L 737.87 85.72 L 741.36 85.72 L 744.85 85.72 L 748.34 85.72 L 751.83 85.72 L 755.32 85.72 L 758.81 85.72 L 762.30 85.72 L 765.79 85.72 L 769.28 85.72 L 772.77 85.72 L 776.26 85.72 L 779.74 85.72 L 783.23 85.72 L 786.72 85.72 L 790.21 85.72 L 793.70 85.72 L 797.19 85.72 L 800.68 85.72 L 804.17 85.72 L 807.66 85.72 L 811.15 85.72 L 814.64 85.72 L 818.13 85.72 L 821.62 85.72 L 825.11 85.72 L 828.60 85.72 L 832.09 85.72 L 835.57 85.72 L 839.06 85.72 L 842.55 85.72 L 846.04 85.72 L 849.53 85.72 L 853.02 85.72 L 856.51 85.72 L 860.00 85.72" fill="none" stroke="#3fb950" stroke-width="2"/>
    <circle cx="860.00" cy="85.72" r="3" fill="#3fb950"/>
    <text x="40.00" y="235.00" font-size="9" fill="#c9d1d9" text-anchor="middle" transform="rotate(-45 40.00 235.00)">09.08.2025</text><text x="120.26" y="235.00" font-size="9" fill="#c9d1d9" text-anchor="middle" transform="rotate(-45 120.26 235.00)">17.08.2025</text><text x="200.51" y="235.00" font-size="9" fill="#c9d1d9" text-anchor="middle" transform="rotate(-45 200.51 235.00)">28.08.2025</text><text x="280.77" y="235.00" font-size="9" fill="#c9d1d9" text-anchor="middle" transform="rotate(-45 280.77 235.00)">19.09.2025</text><text x="361.02" y="235.00" font-size="9" fill="#c9d1d9" text-anchor="middle" transform="rotate(-45 361.02 235.00)">10.10.2025</text><text x="441.28" y="235.00" font-size="9" fill="#c9d1d9" text-anchor="middle" transform="rotate(-45 441.28 235.00)">02.11.2025</text><text x="521.53" y="235.00" font-size="9" fill="#c9d1d9" text-anchor="middle" transform="rotate(-45 521.53 235.00)">25.11.2025</text><text x="601.79" y="235.00" font-size="9" fill="#c9d1d9" text-anchor="middle" transform="rotate(-45 601.79 235.00)">11.12.2025</text><text x="682.04" y="235.00" font-size="9" fill="#c9d1d9" text-anchor="middle" transform="rotate(-45 682.04 235.00)">03.01.2026</text><text x="762.30" y="235.00" font-size="9" fill="#c9d1d9" text-anchor="middle" transform="rotate(-45 762.30 235.00)">26.01.2026</text><text x="842.55" y="235.00" font-size="9" fill="#c9d1d9" text-anchor="middle" transform="rotate(-45 842.55 235.00)">18.02.2026</text>
  </g>
</svg>