<svg xmlns="http://www.w3.org/2000/svg" width="900" height="290" style="font-family: -apple-system, BlinkMacSystemFont, 'Segoe UI', Helvetica, Arial, sans-serif;">
  <rect width="100%" height="100%" fill="white"/>
  <g>
    <line x1="40" y1="220.00" x2="860" y2="220.00" stroke="#e5e7eb"/><text x="32" y="224.00" font-size="10" fill="#111827" text-anchor="end">0</text><line x1="40" y1="175.00" x2="860" y2="175.00" stroke="#e5e7eb"/><text x="32" y="179.00" font-size="10" fill="#111827" text-anchor="end">500</text><line x1="40" y1="130.00" x2="860" y2="130.00" stroke="#e5e7eb"/><text x="32" y="134.00" font-size="10" fill="#111827" text-anchor="end">1k</text><line x1="40" y1="85.00" x2="860" y2="85.00" stroke="#e5e7eb"/><text x="32" y="89.00" font-size="10" fill="#111827" text-anchor="end">1.5k</text><line x1="40" y1="40.00" x2="860" y2="40.00" stroke="#e5e7eb"/><text x="32" y="44.00" font-size="10" fill="#111827" text-anchor="end">2k</text>
    <line x1="40.00" y1="40" x2="40.00" y2="220" stroke="#e5e7eb" opacity="0.5"/><line x1="121.65" y1="40" x2="121.65" y2="220" stroke="#e5e7eb" opacity="0.5"/><line x1="203.29" y1="40" x2="203.29" y2="220" stroke="#e5e7eb" opacity="0.5"/><line x1="284.94" y1="40" x2="284.94" y2="220" stroke="#e5e7eb" opacity="0.5"/><line x1="366.58" y1="40" x2="366.58" y2="220" stroke="#e5e7eb" opacity="0.5"/><line x1="448.23" y1="40" x2="448.23" y2="220" stroke="#e5e7eb" opacity="0.5"/><line x1="529.87" y1="40" x2="529.87" y2="220" stroke="#e5e7eb" opacity="0.5"/><line x1="611.52" y1="40" x2="611.52" y2="220" stroke="#e5e7eb" opacity="0.5"/><line x1="693.16" y1="40" x2="693.16" y2="220" stroke="#e5e7eb" opacity="0.5"/><line x1="774.81" y1="40" x2="774.81" y2="220" stroke="#e5e7eb" opacity="0.5"/><line x1="856.45" y1="40" x2="856.45" y2="220" stroke="#e5e7eb" opacity="0.5"/>
    <line x1="40" y1="220" x2="860" y2="220" stroke="#9ca3af"/>
    <line x1="40" y1="40"   x2="40"   y2="220" stroke="#9ca3af"/>
    <path d="M 40.00 219.82 L 43.55 211.81 L 47.10 211.81 L 50.65 211.81 L 54.20 171.85 L 57.75 171.58 L 61.30 164.38 L 64.85 118.93 L 68.40 119.11 L 71.95 111.10 L 75.50 110.56 L 79.05 110.56 L 82.60 110.56 L 86.15 95.35 L 89.70 95.35 L 93.25 95.35 L 96.80 94.63 L 100.35 94.54 L 103.90 94.45 L 107.45 94.09 L 111.00 94.09 L 114.55 94.09 L 118.10 94.09 L 121.65 94.09 L 125.19 94.09 L 128.74 94.09 L 132.29 94.09 L 135.84 94.09 L 139.39 91.84 L 142.94 83.65 L 146.49 83.65 L 150.04 83.47 L 153.59 83.65 L 157.14 91.03 L 160.69 91.03 L 164.24 91.03 L 167.79 91.03 L 171.34 91.03 L 174.89 91.03 L 178.44 91.03 L 181.99 91.03 L 185.54 91.03 L 189.09 91.03 L 192.64 91.03 L 196.19 90.94 L 199.74 91.03 L 203.29 90.94 L 206.84 90.94 L 210.39 90.94 L 213.94 90.94 L 217.49 90.94 L 221.04 90.94 L 224.59 90.94 L 228.14 90.94 L 231.69 90.94 L 235.24 90.94 L 238.79 90.94 L 242.34 90.94 L 245.89 90.94 L 249.44 90.94 L 252.99 90.94 L 256.54 90.94 L 260.09 90.94 L 263.64 90.94 L 267.19 90.94 L 270.74 90.94 L 274.29 90.94 L 277.84 90.94 L 281.39 90.94 L 284.94 90.94 L 288.48 90.94 L 292.03 123.79 L 295.58 123.79 L 299.13 123.79 L 302.68 123.79 L 306.23 123.79 L 309.78 123.79 L 313.33 123.79 L 316.88 123.79 L 320.43 123.79 L 323.98 123.79 L 327.53 123.79 L 331.08 123.79 L 334.63 123.79 L 338.18 123.79 L 341.73 123.79 L 345.28 123.79 L 348.83 123.79 L 352.38 123.79 L 355.93 123.79 L 359.48 123.79 L 363.03 123.79 L 366.58 123.79 L 370.13 123.79 L 373.68 123.79 L 377.23 123.79 L 380.78 123.79 L 384.33 123.79 L 387.88 123.79 L 391.43 123.79 L 394.98 123.79 L 398.53 123.79 L 402.08 123.79 L 405.63 123.79 L 409.18 123.79 L 412.73 123.79 L 416.28 123.79 L 419.83 123.79 L 423.38 123.79 L 426.93 123.79 L 430.48 123.79 L 434.03 123.79 L 437.58 123.79 L 441.13 123.79 L 444.68 123.79 L 448.23 123.79 L 451.77 123.79 L 455.32 123.79 L 458.87 123.79 L 462.42 123.79 L 465.97 123.79 L 469.52 123.79 L 473.07 123.79 L 476.62 123.79 L 480.17 123.79 L 483.72 123.79 L 487.27 123.79 L 490.82 123.79 L 494.37 123.79 L 497.92 123.79 L 501.47 123.79 L 505.02 123.79 L 508.57 123.79 L 512.12 123.79 L 515.67 123.79 L 519.22 123.79 L 522.77 123.79 L 526.32 123.79 L 529.87 123.79 L 533.42 123.79 L 536.97 123.79 L 540.52 123.79 L 544.07 123.79 L 547.62 123.79 L 551.17 123.79 L 554.72 123.79 L 558.27 123.79 L 561.82 123.79 L 565.37 115.42 L 568.92 111.64 L 572.47 107.86 L 576.02 104.08 L 579.57 100.30 L 583.12 95.98 L 586.67 95.98 L 590.22 95.98 L 593.77 95.98 L 597.32 85.72 L 600.87 85.72 L 604.42 85.72 L 607.97 85.72 L 611.52 85.72 L 615.06 85.72 L 618.61 85.72 L 622.16 85.72 L 625.71 85.72 L 629.26 85.72 L 632.81 85.72 L 636.36 85.72 L 639.91 85.72 L 643.46 85.72 L 647.01 85.72 L 650.56 85.72 L 654.11 85.72 L 657.66 85.72 L 661.21 85.72 L 664.76 85.72 L 668.31 85.72 L 671.86 85.72 L 675.41 85.72 L 678.96 85.72 L 682.51 85.72 L 686.06 85.72 L 689.61 85.72 L 693.16 85.72 L 696.71 85.72 L 700.26 85.72 L 703.81 85.72 L 707.36 85.72 L 710.91 85.72 L 714.46 85.72 L 718.01 85.72 L 721.56 85.72 L 725.11 85.72 L 728.66 85.72 L 732.21 85.72 L 735.76 85.72 L 739.31 85.72 L 742.86 85.72 L 746.41 85.72 L 749.96 85.72 L 753.51 85.72 L 757.06 85.72 L 760.61 85.72 L 764.16 85.72 L 767.71 85.72 L 771.26 85.72 L 774.81 85.72 L 778.35 85.72 L 781.90 85.72 L 785.45 85.72 L 789.00 85.72 L 792.55 85.72 L 796.10 85.72 L 799.65 85.72 L 803.20 85.72 L 806.75 85.72 L 810.30 85.72 L 813.85 85.72 L 817.40 85.72 L 820.95 85.72 L 824.50 85.72 L 828.05 85.72 L 831.60 85.72 L 835.15 85.72 L 838.70 85.72 L 842.25 85.72 L 845.80 85.72 L 849.35 85.72 L 852.90 85.72 L 856.45 85.72 L 860.00 85.72" fill="none" stroke="#111827" stroke-width="2"/>
    <circle cx="860.00" cy="85.72" r="3" fill="#111827"/>
    <text x="40.00" y="235.00" font-size="9" fill="#111827" text-anchor="middle" transform="rotate(-45 40.00 235.00)">09.08.2025</text><text x="121.65" y="235.00" font-size="9" fill="#111827" text-anchor="middle" transform="rotate(-45 121.65 235.00)">17.08.2025</text><text x="203.29" y="235.00" font-size="9" fill="#111827" text-anchor="middle" transform="rotate(-45 203.29 235.00)">28.08.2025</text><text x="284.94" y="235.00" font-size="9" fill="#111827" text-anchor="middle" transform="rotate(-45 284.94 235.00)">19.09.2025</text><text x="366.58" y="235.00" font-size="9" fill="#111827" text-anchor="middle" transform="rotate(-45 366.58 235.00)">10.10.2025</text><text x="448.23" y="235.00" font-size="9" fill="#111827" text-anchor="middle" transform="rotate(-45 448.23 235.00)">02.11.2025</text><text x="529.87" y="235.00" font-size="9" fill="#111827" text-anchor="middle" transform="rotate(-45 529.87 235.00)">25.11.2025</text><text x="611.52" y="235.00" font-size="9" fill="#111827" text-anchor="middle" transform="rotate(-45 611.52 235.00)">11.12.2025</text><text x="693.16" y="235.00" font-size="9" fill="#111827" text-anchor="middle" transform="rotate(-45 693.16 235.00)">03.01.2026</text><text x="774.81" y="235.00" font-size="9" fill="#111827" text-anchor="middle" transform="rotate(-45 774.81 235.00)">26.01.2026</text><text x="856.45" y="235.00" font-size="9" fill="#111827" text-anchor="middle" transform="rotate(-45 856.45 235.00)">18.02.2026</text>
  </g>
</svg>