<svg xmlns="http://www.w3.org/2000/svg" width="900" height="290" style="font-family: -apple-system, BlinkMacSystemFont, 'Segoe UI', Helvetica, Arial, sans-serif;">
  <rect width="100%" height="100%" fill="#0d1117"/>
  <g>
    <line x1="40" y1="220.00" x2="860" y2="220.00" stroke="#30363d"/><text x="32" y="224.00" font-size="10" fill="#c9d1d9" text-anchor="end">0</text><line x1="40" y1="175.00" x2="860" y2="175.00" stroke="#30363d"/><text x="32" y="179.00" font-size="10" fill="#c9d1d9" text-anchor="end">500</text><line x1="40" y1="130.00" x2="860" y2="130.00" stroke="#30363d"/><text x="32" y="134.00" font-size="10" fill="#c9d1d9" text-anchor="end">1k</text><line x1="40" y1="85.00" x2="860" y2="85.00" stroke="#30363d"/><text x="32" y="89.00" font-size="10" fill="#c9d1d9" text-anchor="end">1.5k</text><line x1="40" y1="40.00" x2="860" y2="40.00" stroke="#30363d"/><text x="32" y="44.00" font-size="10" fill="#c9d1d9" text-anchor="end">2k</text>
    <line x1="40.00" y1="40" x2="40.00" y2="220" stroke="#30363d" opacity="0.5"/><line x1="119.58" y1="40" x2="119.58" y2="220" stroke="#30363d" opacity="0.5"/><line x1="199.16" y1="40" x2="199.16" y2="220" stroke="#30363d" opacity="0.5"/><line x1="278.73" y1="40" x2="278.73" y2="220" stroke="#30363d" opacity="0.5"/><line x1="358.31" y1="40" x2="358.31" y2="220" stroke="#30363d" opacity="0.5"/><line x1="437.89" y1="40" x2="437.89" y2="220" stroke="#30363d" opacity="0.5"/><line x1="517.47" y1="40" x2="517.47" y2="220" stroke="#30363d" opacity="0.5"/><line x1="597.05" y1="40" x2="597.05" y2="220" stroke="#30363d" opacity="0.5"/><line x1="676.62" y1="40" x2="676.62" y2="220" stroke="#30363d" opacity="0.5"/><line x1="756.20" y1="40" x2="756.20" y2="220" stroke="#30363d" opacity="0.5"/><line x1="835.78" y1="40" x2="835.78" y2="220" stroke="#30363d" opacity="0.5"/>
    <line x1="40" y1="220" x2="860" y2="220" stroke="#30363d"/>
    <line x1="40" y1="40"   x2="40"   y2="220" stroke="#30363d"/>
    <path d="M 40.00 219.82 L 43.46 211.81 L 46.92 211.81 L 50.38 211.81 L 53.84 171.85 L 57.30 171.58 L 60.76 164.38 L 64.22 118.93 L 67.68 119.11 L 71.14 111.10 L 74.60 110.56 L 78.06 110.56 L 81.52 110.56 L 84.98 95.35 L 88.44 95.35 L 91.90 95.35 L 95.36 94.63 L 98.82 94.54 L 102.28 94.45 L 105.74 94.09 L 109.20 94.09 L 112.66 94.09 L 116.12 94.09 L 119.58 94.09 L 123.04 94.09 L 126.50 94.09 L 129.96 94.09 L 133.42 94.09 L 136.88 91.84 L 140.34 83.65 L 143.80 83.65 L 147.26 83.47 L 150.72 83.65 L 154.18 91.03 L 157.64 91.03 L 161.10 91.03 L 164.56 91.03 L 168.02 91.03 L 171.48 91.03 L 174.94 91.03 L 178.40 91.03 L 181.86 91.03 L 185.32 91.03 L 188.78 91.03 L 192.24 90.94 L 195.70 91.03 L 199.16 90.94 L 202.62 90.94 L 206.08 90.94 L 209.54 90.94 L 213.00 90.94 L 216.46 90.94 L 219.92 90.94 L 223.38 90.94 L 226.84 90.94 L 230.30 90.94 L 233.76 90.94 L 237.22 90.94 L 240.68 90.94 L 244.14 90.94 L 247.59 90.94 L 251.05 90.94 L 254.51 90.94 L 257.97 90.94 L 261.43 90.94 L 264.89 90.94 L 268.35 90.94 L 271.81 90.94 L 275.27 90.94 L 278.73 90.94 L 282.19 90.94 L 285.65 123.79 L 289.11 123.79 L 292.57 123.79 L 296.03 123.79 L 299.49 123.79 L 302.95 123.79 L 306.41 123.79 L 309.87 123.79 L 313.33 123.79 L 316.79 123.79 L 320.25 123.79 L 323.71 123.79 L 327.17 123.79 L 330.63 123.79 L 334.09 123.79 L 337.55 123.79 L 341.01 123.79 L 344.47 123.79 L 347.93 123.79 L 351.39 123.79 L 354.85 123.79 L 358.31 123.79 L 361.77 123.79 L 365.23 123.79 L 368.69 123.79 L 372.15 123.79 L 375.61 123.79 L 379.07 123.79 L 382.53 123.79 L 385.99 123.79 L 389.45 123.79 L 392.91 123.79 L 396.37 123.79 L 399.83 123.79 L 403.29 123.79 L 406.75 123.79 L 410.21 123.79 L 413.67 123.79 L 417.13 123.79 L 420.59 123.79 L 424.05 123.79 L 427.51 123.79 L 430.97 123.79 L 434.43 123.79 L 437.89 123.79 L 441.35 123.79 L 444.81 123.79 L 448.27 123.79 L 451.73 123.79 L 455.19 123.79 L 458.65 123.79 L 462.11 123.79 L 465.57 123.79 L 469.03 123.79 L 472.49 123.79 L 475.95 123.79 L 479.41 123.79 L 482.87 123.79 L 486.33 123.79 L 489.79 123.79 L 493.25 123.79 L 496.71 123.79 L 500.17 123.79 L 503.63 123.79 L 507.09 123.79 L 510.55 123.79 L 514.01 123.79 L 517.47 123.79 L 520.93 123.79 L 524.39 123.79 L 527.85 123.79 L 531.31 123.79 L 534.77 123.79 L 538.23 123.79 L 541.69 123.79 L 545.15 123.79 L 548.61 123.79 L 552.07 115.42 L 555.53 111.64 L 558.99 107.86 L 562.45 104.08 L 565.91 100.30 L 569.37 95.98 L 572.83 95.98 L 576.29 95.98 L 579.75 95.98 L 583.21 85.72 L 586.67 85.72 L 590.13 85.72 L 593.59 85.72 L 597.05 85.72 L 600.51 85.72 L 603.97 85.72 L 607.43 85.72 L 610.89 85.72 L 614.35 85.72 L 617.81 85.72 L 621.27 85.72 L 624.73 85.72 L 628.19 85.72 L 631.65 85.72 L 635.11 85.72 L 638.57 85.72 L 642.03 85.72 L 645.49 85.72 L 648.95 85.72 L 652.41 85.72 L 655.86 85.72 L 659.32 85.72 L 662.78 85.72 L 666.24 85.72 L 669.70 85.72 L 673.16 85.72 L 676.62 85.72 L 680.08 85.72 L 683.54 85.72 L 687.00 85.72 L 690.46 85.72 L 693.92 85.72 L 697.38 85.72 L 700.84 85.72 L 704.30 85.72 L 707.76 85.72 L 711.22 85.72 L 714.68 85.72 L 718.14 85.72 L 721.60 85.72 L 725.06 85.72 L 728.52 85.72 L 731.98 85.72 L 735.44 85.72 L 738.90 85.72 L 742.36 85.72 L 745.82 85.72 L 749.28 85.72 L 752.74 85.72 L 756.20 85.72 L 759.66 85.72 L 763.12 85.72 L 766.58 85.72 L 770.04 85.72 L 773.50 85.72 L 776.96 85.72 L 780.42 85.72 L 783.88 85.72 L 787.34 85.72 L 790.80 85.72 L 794.26 85.72 L 797.72 85.72 L 801.18 85.72 L 804.64 85.72 L 808.10 85.72 L 811.56 85.72 L 815.02 85.72 L 818.48 85.72 L 821.94 85.72 L 825.40 85.72 L 828.86 85.72 L 832.32 85.72 L 835.78 85.72 L 839.24 85.72 L 842.70 85.72 L 846.16 85.72 L 849.62 85.72 L 853.08 85.72 L 856.54 85.72 L 860.00 85.72" fill="none" stroke="#3fb950" stroke-width="2"/>
    <circle cx="860.00" cy="85.72" r="3" fill="#3fb950"/>
    <text x="40.00" y="235.00" font-size="9" fill="#c9d1d9" text-anchor="middle" transform="rotate(-45 40.00 235.00)">09.08.2025</text><text x="119.58" y="235.00" font-size="9" fill="#c9d1d9" text-anchor="middle" transform="rotate(-45 119.58 235.00)">17.08.2025</text><text x="199.16" y="235.00" font-size="9" fill="#c9d1d9" text-anchor="middle" transform="rotate(-45 199.16 235.00)">28.08.2025</text><text x="278.73" y="235.00" font-size="9" fill="#c9d1d9" text-anchor="middle" transform="rotate(-45 278.73 235.00)">19.09.2025</text><text x="358.31" y="235.00" font-size="9" fill="#c9d1d9" text-anchor="middle" transform="rotate(-45 358.31 235.00)">10.10.2025</text><text x="437.89" y="235.00" font-size="9" fill="#c9d1d9" text-anchor="middle" transform="rotate(-45 437.89 235.00)">02.11.2025</text><text x="517.47" y="235.00" font-size="9" fill="#c9d1d9" text-anchor="middle" transform="rotate(-45 517.47 235.00)">25.11.2025</text><text x="597.05" y="235.00" font-size="9" fill="#c9d1d9" text-anchor="middle" transform="rotate(-45 597.05 235.00)">11.12.2025</text><text x="676.62" y="235.00" font-size="9" fill="#c9d1d9" text-anchor="middle" transform="rotate(-45 676.62 235.00)">03.01.2026</text><text x="756.20" y="235.00" font-size="9" fill="#c9d1d9" text-anchor="middle" transform="rotate(-45 756.20 235.00)">26.01.2026</text><text x="835.78" y="235.00" font-size="9" fill="#c9d1d9" text-anchor="middle" transform="rotate(-45 835.78 235.00)">18.02.2026</text>
  </g>
</svg>