<svg xmlns="http://www.w3.org/2000/svg" width="900" height="290" style="font-family: -apple-system, BlinkMacSystemFont, 'Segoe UI', Helvetica, Arial, sans-serif;">
  <rect width="100%" height="100%" fill="white"/>
  <g>
    <line x1="40" y1="220.00" x2="860" y2="220.00" stroke="#e5e7eb"/><text x="32" y="224.00" font-size="10" fill="#111827" text-anchor="end">0</text><line x1="40" y1="175.00" x2="860" y2="175.00" stroke="#e5e7eb"/><text x="32" y="179.00" font-size="10" fill="#111827" text-anchor="end">500</text><line x1="40" y1="130.00" x2="860" y2="130.00" stroke="#e5e7eb"/><text x="32" y="134.00" font-size="10" fill="#111827" text-anchor="end">1k</text><line x1="40" y1="85.00" x2="860" y2="85.00" stroke="#e5e7eb"/><text x="32" y="89.00" font-size="10" fill="#111827" text-anchor="end">1.5k</text><line x1="40" y1="40.00" x2="860" y2="40.00" stroke="#e5e7eb"/><text x="32" y="44.00" font-size="10" fill="#111827" text-anchor="end">2k</text>
    <line x1="40.00" y1="40" x2="40.00" y2="220" stroke="#e5e7eb" opacity="0.5"/><line x1="119.12" y1="40" x2="119.12" y2="220" stroke="#e5e7eb" opacity="0.5"/><line x1="198.25" y1="40" x2="198.25" y2="220" stroke="#e5e7eb" opacity="0.5"/><line x1="277.37" y1="40" x2="277.37" y2="220" stroke="#e5e7eb" opacity="0.5"/><line x1="356.49" y1="40" x2="356.49" y2="220" stroke="#e5e7eb" opacity="0.5"/><line x1="435.61" y1="40" x2="435.61" y2="220" stroke="#e5e7eb" opacity="0.5"/><line x1="514.74" y1="40" x2="514.74" y2="220" stroke="#e5e7eb" opacity="0.5"/><line x1="593.86" y1="40" x2="593.86" y2="220" stroke="#e5e7eb" opacity="0.5"/><line x1="672.98" y1="40" x2="672.98" y2="220" stroke="#e5e7eb" opacity="0.5"/><line x1="752.11" y1="40" x2="752.11" y2="220" stroke="#e5e7eb" opacity="0.5"/><line x1="831.23" y1="40" x2="831.23" y2="220" stroke="#e5e7eb" opacity="0.5"/>
    <line x1="40" y1="220" x2="860" y2="220" stroke="#9ca3af"/>
    <line x1="40" y1="40"   x2="40"   y2="220" stroke="#9ca3af"/>
    <path d="M 40.00 219.82 L 43.60 211.81 L 47.19 211.81 L 50.79 211.81 L 54.39 171.85 L 57.98 171.58 L 61.58 164.38 L 65.18 118.93 L 68.77 119.11 L 72.37 111.10 L 75.96 110.56 L 79.56 110.56 L 83.16 110.56 L 86.75 95.35 L 90.35 95.35 L 93.95 95.35 L 97.54 94.63 L 101.14 94.54 L 104.74 94.45 L 108.33 94.09 L 111.93 94.09 L 115.53 94.09 L 119.12 94.09 L 122.72 94.09 L 126.32 94.09 L 129.91 94.09 L 133.51 94.09 L 137.11 94.09 L 140.70 91.84 L 144.30 83.65 L 147.89 83.65 L 151.49 83.47 L 155.09 83.65 L 158.68 91.03 L 162.28 91.03 L 165.88 91.03 L 169.47 91.03 L 173.07 91.03 L 176.67 91.03 L 180.26 91.03 L 183.86 91.03 L 187.46 91.03 L 191.05 91.03 L 194.65 91.03 L 198.25 90.94 L 201.84 91.03 L 205.44 90.94 L 209.04 90.94 L 212.63 90.94 L 216.23 90.94 L 219.82 90.94 L 223.42 90.94 L 227.02 90.94 L 230.61 90.94 L 234.21 90.94 L 237.81 90.94 L 241.40 90.94 L 245.00 90.94 L 248.60 90.94 L 252.19 90.94 L 255.79 90.94 L 259.39 90.94 L 262.98 90.94 L 266.58 90.94 L 270.18 90.94 L 273.77 90.94 L 277.37 90.94 L 280.96 90.94 L 284.56 90.94 L 288.16 90.94 L 291.75 90.94 L 295.35 123.79 L 298.95 123.79 L 302.54 123.79 L 306.14 123.79 L 309.74 123.79 L 313.33 123.79 L 316.93 123.79 L 320.53 123.79 L 324.12 123.79 L 327.72 123.79 L 331.32 123.79 L 334.91 123.79 L 338.51 123.79 L 342.11 123.79 L 345.70 123.79 L 349.30 123.79 L 352.89 123.79 L 356.49 123.79 L 360.09 123.79 L 363.68 123.79 L 367.28 123.79 L 370.88 123.79 L 374.47 123.79 L 378.07 123.79 L 381.67 123.79 L 385.26 123.79 L 388.86 123.79 L 392.46 123.79 L 396.05 123.79 L 399.65 123.79 L 403.25 123.79 L 406.84 123.79 L 410.44 123.79 L 414.04 123.79 L 417.63 123.79 L 421.23 123.79 L 424.82 123.79 L 428.42 123.79 L 432.02 123.79 L 435.61 123.79 L 439.21 123.79 L 442.81 123.79 L 446.40 123.79 L 450.00 123.79 L 453.60 123.79 L 457.19 123.79 L 460.79 123.79 L 464.39 123.79 L 467.98 123.79 L 471.58 123.79 L 475.18 123.79 L 478.77 123.79 L 482.37 123.79 L 485.96 123.79 L 489.56 123.79 L 493.16 123.79 L 496.75 123.79 L 500.35 123.79 L 503.95 123.79 L 507.54 123.79 L 511.14 123.79 L 514.74 123.79 L 518.33 123.79 L 521.93 123.79 L 525.53 123.79 L 529.12 123.79 L 532.72 123.79 L 536.32 123.79 L 539.91 123.79 L 543.51 123.79 L 547.11 123.79 L 550.70 123.79 L 554.30 123.79 L 557.89 123.79 L 561.49 123.79 L 565.09 123.79 L 568.68 123.79 L 572.28 115.42 L 575.88 111.64 L 579.47 107.86 L 583.07 104.08 L 586.67 100.30 L 590.26 95.98 L 593.86 95.98 L 597.46 95.98 L 601.05 95.98 L 604.65 85.72 L 608.25 85.72 L 611.84 85.72 L 615.44 85.72 L 619.04 85.72 L 622.63 85.72 L 626.23 85.72 L 629.82 85.72 L 633.42 85.72 L 637.02 85.72 L 640.61 85.72 L 644.21 85.72 L 647.81 85.72 L 651.40 85.72 L 655.00 85.72 L 658.60 85.72 L 662.19 85.72 L 665.79 85.72 L 669.39 85.72 L 672.98 85.72 L 676.58 85.72 L 680.18 85.72 L 683.77 85.72 L 687.37 85.72 L 690.96 85.72 L 694.56 85.72 L 698.16 85.72 L 701.75 85.72 L 705.35 85.72 L 708.95 85.72 L 712.54 85.72 L 716.14 85.72 L 719.74 85.72 L 723.33 85.72 L 726.93 85.72 L 730.53 85.72 L 734.12 85.72 L 737.72 85.72 L 741.32 85.72 L 744.91 85.72 L 748.51 85.72 L 752.11 85.72 L 755.70 85.72 L 759.30 85.72 L 762.89 85.72 L 766.49 85.72 L 770.09 85.72 L 773.68 85.72 L 777.28 85.72 L 780.88 85.72 L 784.47 85.72 L 788.07 85.72 L 791.67 85.72 L 795.26 85.72 L 798.86 85.72 L 802.46 85.72 L 806.05 85.72 L 809.65 85.72 L 813.25 85.72 L 816.84 85.72 L 820.44 85.72 L 824.04 85.72 L 827.63 85.72 L 831.23 85.72 L 834.82 85.72 L 838.42 85.72 L 842.02 85.72 L 845.61 85.72 L 849.21 85.72 L 852.81 85.72 L 856.40 85.72 L 860.00 85.72" fill="none" stroke="#111827" stroke-width="2"/>
    <circle cx="860.00" cy="85.72" r="3" fill="#111827"/>
    <text x="40.00" y="235.00" font-size="9" fill="#111827" text-anchor="middle" transform="rotate(-45 40.00 235.00)">09.08.2025</text><text x="119.12" y="235.00" font-size="9" fill="#111827" text-anchor="middle" transform="rotate(-45 119.12 235.00)">16.08.2025</text><text x="198.25" y="235.00" font-size="9" fill="#111827" text-anchor="middle" transform="rotate(-45 198.25 235.00)">28.08.2025</text><text x="277.37" y="235.00" font-size="9" fill="#111827" text-anchor="middle" transform="rotate(-45 277.37 235.00)">16.09.2025</text><text x="356.49" y="235.00" font-size="9" fill="#111827" text-anchor="middle" transform="rotate(-45 356.49 235.00)">06.10.2025</text><text x="435.61" y="235.00" font-size="9" fill="#111827" text-anchor="middle" transform="rotate(-45 435.61 235.00)">28.10.2025</text><text x="514.74" y="235.00" font-size="9" fill="#111827" text-anchor="middle" transform="rotate(-45 514.74 235.00)">19.11.2025</text><text x="593.86" y="235.00" font-size="9" fill="#111827" text-anchor="middle" transform="rotate(-45 593.86 235.00)">05.12.2025</text><text x="672.98" y="235.00" font-size="9" fill="#111827" text-anchor="middle" transform="rotate(-45 672.98 235.00)">26.12.2025</text><text x="752.11" y="235.00" font-size="9" fill="#111827" text-anchor="middle" transform="rotate(-45 752.11 235.00)">17.01.2026</text><text x="831.23" y="235.00" font-size="9" fill="#111827" text-anchor="middle" transform="rotate(-45 831.23 235.00)">08.02.2026</text>
  </g>
</svg>