<svg xmlns="http://www.w3.org/2000/svg" width="900" height="290" style="font-family: -apple-system, BlinkMacSystemFont, 'Segoe UI', Helvetica, Arial, sans-serif;">
  <rect width="100%" height="100%" fill="#0d1117"/>
  <g>
    <line x1="40" y1="220.00" x2="860" y2="220.00" stroke="#30363d"/><text x="32" y="224.00" font-size="10" fill="#c9d1d9" text-anchor="end">0</text><line x1="40" y1="175.00" x2="860" y2="175.00" stroke="#30363d"/><text x="32" y="179.00" font-size="10" fill="#c9d1d9" text-anchor="end">500</text><line x1="40" y1="130.00" x2="860" y2="130.00" stroke="#30363d"/><text x="32" y="134.00" font-size="10" fill="#c9d1d9" text-anchor="end">1k</text><line x1="40" y1="85.00" x2="860" y2="85.00" stroke="#30363d"/><text x="32" y="89.00" font-size="10" fill="#c9d1d9" text-anchor="end">1.5k</text><line x1="40" y1="40.00" x2="860" y2="40.00" stroke="#30363d"/><text x="32" y="44.00" font-size="10" fill="#c9d1d9" text-anchor="end">2k</text>
    <line x1="40.00" y1="40" x2="40.00" y2="220" stroke="#30363d" opacity="0.5"/><line x1="122.36" y1="40" x2="122.36" y2="220" stroke="#30363d" opacity="0.5"/><line x1="204.72" y1="40" x2="204.72" y2="220" stroke="#30363d" opacity="0.5"/><line x1="287.07" y1="40" x2="287.07" y2="220" stroke="#30363d" opacity="0.5"/><line x1="369.43" y1="40" x2="369.43" y2="220" stroke="#30363d" opacity="0.5"/><line x1="451.79" y1="40" x2="451.79" y2="220" stroke="#30363d" opacity="0.5"/><line x1="534.15" y1="40" x2="534.15" y2="220" stroke="#30363d" opacity="0.5"/><line x1="616.51" y1="40" x2="616.51" y2="220" stroke="#30363d" opacity="0.5"/><line x1="698.86" y1="40" x2="698.86" y2="220" stroke="#30363d" opacity="0.5"/><line x1="781.22" y1="40" x2="781.22" y2="220" stroke="#30363d" opacity="0.5"/>
    <line x1="40" y1="220" x2="860" y2="220" stroke="#30363d"/>
    <line x1="40" y1="40"   x2="40"   y2="220" stroke="#30363d"/>
    <path d="M 40.00 219.82 L 43.58 211.81 L 47.16 211.81 L 50.74 211.81 L 54.32 171.85 L 57.90 171.58 L 61.48 164.38 L 65.07 118.93 L 68.65 119.11 L 72.23 111.10 L 75.81 110.56 L 79.39 110.56 L 82.97 110.56 L 86.55 95.35 L 90.13 95.35 L 93.71 95.35 L 97.29 94.63 L 100.87 94.54 L 104.45 94.45 L 108.03 94.09 L 111.62 94.09 L 115.20 94.09 L 118.78 94.09 L 122.36 94.09 L 125.94 94.09 L 129.52 94.09 L 133.10 94.09 L 136.68 94.09 L 140.26 91.84 L 143.84 83.65 L 147.42 83.65 L 151.00 83.47 L 154.59 83.65 L 158.17 91.03 L 161.75 91.03 L 165.33 91.03 L 168.91 91.03 L 172.49 91.03 L 176.07 91.03 L 179.65 91.03 L 183.23 91.03 L 186.81 91.03 L 190.39 91.03 L 193.97 91.03 L 197.55 90.94 L 201.14 91.03 L 204.72 90.94 L 208.30 90.94 L 211.88 90.94 L 215.46 90.94 L 219.04 90.94 L 222.62 90.94 L 226.20 90.94 L 229.78 90.94 L 233.36 90.94 L 236.94 90.94 L 240.52 90.94 L 244.10 90.94 L 247.69 90.94 L 251.27 90.94 L 254.85 90.94 L 258.43 90.94 L 262.01 90.94 L 265.59 90.94 L 269.17 90.94 L 272.75 90.94 L 276.33 90.94 L 279.91 90.94 L 283.49 90.94 L 287.07 90.94 L 290.66 90.94 L 294.24 123.79 L 297.82 123.79 L 301.40 123.79 L 304.98 123.79 L 308.56 123.79 L 312.14 123.79 L 315.72 123.79 L 319.30 123.79 L 322.88 123.79 L 326.46 123.79 L 330.04 123.79 L 333.62 123.79 L 337.21 123.79 L 340.79 123.79 L 344.37 123.79 L 347.95 123.79 L 351.53 123.79 L 355.11 123.79 L 358.69 123.79 L 362.27 123.79 L 365.85 123.79 L 369.43 123.79 L 373.01 123.79 L 376.59 123.79 L 380.17 123.79 L 383.76 123.79 L 387.34 123.79 L 390.92 123.79 L 394.50 123.79 L 398.08 123.79 L 401.66 123.79 L 405.24 123.79 L 408.82 123.79 L 412.40 123.79 L 415.98 123.79 L 419.56 123.79 L 423.14 123.79 L 426.72 123.79 L 430.31 123.79 L 433.89 123.79 L 437.47 123.79 L 441.05 123.79 L 444.63 123.79 L 448.21 123.79 L 451.79 123.79 L 455.37 123.79 L 458.95 123.79 L 462.53 123.79 L 466.11 123.79 L 469.69 123.79 L 473.28 123.79 L 476.86 123.79 L 480.44 123.79 L 484.02 123.79 L 487.60 123.79 L 491.18 123.79 L 494.76 123.79 L 498.34 123.79 L 501.92 123.79 L 505.50 123.79 L 509.08 123.79 L 512.66 123.79 L 516.24 123.79 L 519.83 123.79 L 523.41 123.79 L 526.99 123.79 L 530.57 123.79 L 534.15 123.79 L 537.73 123.79 L 541.31 123.79 L 544.89 123.79 L 548.47 123.79 L 552.05 123.79 L 555.63 123.79 L 559.21 123.79 L 562.79 123.79 L 566.38 123.79 L 569.96 115.42 L 573.54 111.64 L 577.12 107.86 L 580.70 104.08 L 584.28 100.30 L 587.86 95.98 L 591.44 95.98 L 595.02 95.98 L 598.60 95.98 L 602.18 85.72 L 605.76 85.72 L 609.34 85.72 L 612.93 85.72 L 616.51 85.72 L 620.09 85.72 L 623.67 85.72 L 627.25 85.72 L 630.83 85.72 L 634.41 85.72 L 637.99 85.72 L 641.57 85.72 L 645.15 85.72 L 648.73 85.72 L 652.31 85.72 L 655.90 85.72 L 659.48 85.72 L 663.06 85.72 L 666.64 85.72 L 670.22 85.72 L 673.80 85.72 L 677.38 85.72 L 680.96 85.72 L 684.54 85.72 L 688.12 85.72 L 691.70 85.72 L 695.28 85.72 L 698.86 85.72 L 702.45 85.72 L 706.03 85.72 L 709.61 85.72 L 713.19 85.72 L 716.77 85.72 L 720.35 85.72 L 723.93 85.72 L 727.51 85.72 L 731.09 85.72 L 734.67 85.72 L 738.25 85.72 L 741.83 85.72 L 745.41 85.72 L 749.00 85.72 L 752.58 85.72 L 756.16 85.72 L 759.74 85.72 L 763.32 85.72 L 766.90 85.72 L 770.48 85.72 L 774.06 85.72 L 777.64 85.72 L 781.22 85.72 L 784.80 85.72 L 788.38 85.72 L 791.97 85.72 L 795.55 85.72 L 799.13 85.72 L 802.71 85.72 L 806.29 85.72 L 809.87 85.72 L 813.45 85.72 L 817.03 85.72 L 820.61 85.72 L 824.19 85.72 L 827.77 85.72 L 831.35 85.72 L 834.93 85.72 L 838.52 85.72 L 842.10 85.72 L 845.68 85.72 L 849.26 85.72 L 852.84 85.72 L 856.42 85.72 L 860.00 85.72" fill="none" stroke="#3fb950" stroke-width="2"/>
    <circle cx="860.00" cy="85.72" r="3" fill="#3fb950"/>
    <text x="40.00" y="235.00" font-size="9" fill="#c9d1d9" text-anchor="middle" transform="rotate(-45 40.00 235.00)">09.08.2025</text><text x="122.36" y="235.00" font-size="9" fill="#c9d1d9" text-anchor="middle" transform="rotate(-45 122.36 235.00)">17.08.2025</text><text x="204.72" y="235.00" font-size="9" fill="#c9d1d9" text-anchor="middle" transform="rotate(-45 204.72 235.00)">28.08.2025</text><text x="287.07" y="235.00" font-size="9" fill="#c9d1d9" text-anchor="middle" transform="rotate(-45 287.07 235.00)">19.09.2025</text><text x="369.43" y="235.00" font-size="9" fill="#c9d1d9" text-anchor="middle" transform="rotate(-45 369.43 235.00)">10.10.2025</text><text x="451.79" y="235.00" font-size="9" fill="#c9d1d9" text-anchor="middle" transform="rotate(-45 451.79 235.00)">02.11.2025</text><text x="534.15" y="235.00" font-size="9" fill="#c9d1d9" text-anchor="middle" transform="rotate(-45 534.15 235.00)">25.11.2025</text><text x="616.51" y="235.00" font-size="9" fill="#c9d1d9" text-anchor="middle" transform="rotate(-45 616.51 235.00)">11.12.2025</text><text x="698.86" y="235.00" font-size="9" fill="#c9d1d9" text-anchor="middle" transform="rotate(-45 698.86 235.00)">03.01.2026</text><text x="781.22" y="235.00" font-size="9" fill="#c9d1d9" text-anchor="middle" transform="rotate(-45 781.22 235.00)">26.01.2026</text>
  </g>
</svg>