<svg xmlns="http://www.w3.org/2000/svg" width="900" height="290" style="font-family: -apple-system, BlinkMacSystemFont, 'Segoe UI', Helvetica, Arial, sans-serif;">
  <rect width="100%" height="100%" fill="#0d1117"/>
  <g>
    <line x1="40" y1="220.00" x2="860" y2="220.00" stroke="#30363d"/><text x="32" y="224.00" font-size="10" fill="#c9d1d9" text-anchor="end">0</text><line x1="40" y1="175.00" x2="860" y2="175.00" stroke="#30363d"/><text x="32" y="179.00" font-size="10" fill="#c9d1d9" text-anchor="end">500</text><line x1="40" y1="130.00" x2="860" y2="130.00" stroke="#30363d"/><text x="32" y="134.00" font-size="10" fill="#c9d1d9" text-anchor="end">1k</text><line x1="40" y1="85.00" x2="860" y2="85.00" stroke="#30363d"/><text x="32" y="89.00" font-size="10" fill="#c9d1d9" text-anchor="end">1.5k</text><line x1="40" y1="40.00" x2="860" y2="40.00" stroke="#30363d"/><text x="32" y="44.00" font-size="10" fill="#c9d1d9" text-anchor="end">2k</text>
    <line x1="40.00" y1="40" x2="40.00" y2="220" stroke="#30363d" opacity="0.5"/><line x1="122.00" y1="40" x2="122.00" y2="220" stroke="#30363d" opacity="0.5"/><line x1="204.00" y1="40" x2="204.00" y2="220" stroke="#30363d" opacity="0.5"/><line x1="286.00" y1="40" x2="286.00" y2="220" stroke="#30363d" opacity="0.5"/><line x1="368.00" y1="40" x2="368.00" y2="220" stroke="#30363d" opacity="0.5"/><line x1="450.00" y1="40" x2="450.00" y2="220" stroke="#30363d" opacity="0.5"/><line x1="532.00" y1="40" x2="532.00" y2="220" stroke="#30363d" opacity="0.5"/><line x1="614.00" y1="40" x2="614.00" y2="220" stroke="#30363d" opacity="0.5"/><line x1="696.00" y1="40" x2="696.00" y2="220" stroke="#30363d" opacity="0.5"/><line x1="778.00" y1="40" x2="778.00" y2="220" stroke="#30363d" opacity="0.5"/><line x1="860.00" y1="40" x2="860.00" y2="220" stroke="#30363d" opacity="0.5"/>
    <line x1="40" y1="220" x2="860" y2="220" stroke="#30363d"/>
    <line x1="40" y1="40"   x2="40"   y2="220" stroke="#30363d"/>
    <path d="M 40.00 219.82 L 43.42 211.81 L 46.83 211.81 L 50.25 211.81 L 53.67 171.85 L 57.08 171.58 L 60.50 164.38 L 63.92 118.93 L 67.33 119.11 L 70.75 111.10 L 74.17 110.56 L 77.58 110.56 L 81.00 110.56 L 84.42 95.35 L 87.83 95.35 L 91.25 95.35 L 94.67 94.63 L 98.08 94.54 L 101.50 94.45 L 104.92 94.09 L 108.33 94.09 L 111.75 94.09 L 115.17 94.09 L 118.58 94.09 L 122.00 94.09 L 125.42 94.09 L 128.83 94.09 L 132.25 94.09 L 135.67 91.84 L 139.08 83.65 L 142.50 83.65 L 145.92 83.47 L 149.33 83.65 L 152.75 91.03 L 156.17 91.03 L 159.58 91.03 L 163.00 91.03 L 166.42 91.03 L 169.83 91.03 L 173.25 91.03 L 176.67 91.03 L 180.08 91.03 L 183.50 91.03 L 186.92 91.03 L 190.33 90.94 L 193.75 91.03 L 197.17 90.94 L 200.58 90.94 L 204.00 90.94 L 207.42 90.94 L 210.83 90.94 L 214.25 90.94 L 217.67 90.94 L 221.08 90.94 L 224.50 90.94 L 227.92 90.94 L 231.33 90.94 L 234.75 90.94 L 238.17 90.94 L 241.58 90.94 L 245.00 90.94 L 248.42 90.94 L 251.83 90.94 L 255.25 90.94 L 258.67 90.94 L 262.08 90.94 L 265.50 90.94 L 268.92 90.94 L 272.33 90.94 L 275.75 90.94 L 279.17 90.94 L 282.58 123.79 L 286.00 123.79 L 289.42 123.79 L 292.83 123.79 L 296.25 123.79 L 299.67 123.79 L 303.08 123.79 L 306.50 123.79 L 309.92 123.79 L 313.33 123.79 L 316.75 123.79 L 320.17 123.79 L 323.58 123.79 L 327.00 123.79 L 330.42 123.79 L 333.83 123.79 L 337.25 123.79 L 340.67 123.79 L 344.08 123.79 L 347.50 123.79 L 350.92 123.79 L 354.33 123.79 L 357.75 123.79 L 361.17 123.79 L 364.58 123.79 L 368.00 123.79 L 371.42 123.79 L 374.83 123.79 L 378.25 123.79 L 381.67 123.79 L 385.08 123.79 L 388.50 123.79 L 391.92 123.79 L 395.33 123.79 L 398.75 123.79 L 402.17 123.79 L 405.58 123.79 L 409.00 123.79 L 412.42 123.79 L 415.83 123.79 L 419.25 123.79 L 422.67 123.79 L 426.08 123.79 L 429.50 123.79 L 432.92 123.79 L 436.33 123.79 L 439.75 123.79 L 443.17 123.79 L 446.58 123.79 L 450.00 123.79 L 453.42 123.79 L 456.83 123.79 L 460.25 123.79 L 463.67 123.79 L 467.08 123.79 L 470.50 123.79 L 473.92 123.79 L 477.33 123.79 L 480.75 123.79 L 484.17 123.79 L 487.58 123.79 L 491.00 123.79 L 494.42 123.79 L 497.83 123.79 L 501.25 123.79 L 504.67 123.79 L 508.08 123.79 L 511.50 123.79 L 514.92 123.79 L 518.33 123.79 L 521.75 123.79 L 525.17 123.79 L 528.58 123.79 L 532.00 123.79 L 535.42 123.79 L 538.83 123.79 L 542.25 123.79 L 545.67 115.42 L 549.08 111.64 L 552.50 107.86 L 555.92 104.08 L 559.33 100.30 L 562.75 95.98 L 566.17 95.98 L 569.58 95.98 L 573.00 95.98 L 576.42 85.72 L 579.83 85.72 L 583.25 85.72 L 586.67 85.72 L 590.08 85.72 L 593.50 85.72 L 596.92 85.72 L 600.33 85.72 L 603.75 85.72 L 607.17 85.72 L 610.58 85.72 L 614.00 85.72 L 617.42 85.72 L 620.83 85.72 L 624.25 85.72 L 627.67 85.72 L 631.08 85.72 L 634.50 85.72 L 637.92 85.72 L 641.33 85.72 L 644.75 85.72 L 648.17 85.72 L 651.58 85.72 L 655.00 85.72 L 658.42 85.72 L 661.83 85.72 L 665.25 85.72 L 668.67 85.72 L 672.08 85.72 L 675.50 85.72 L 678.92 85.72 L 682.33 85.72 L 685.75 85.72 L 689.17 85.72 L 692.58 85.72 L 696.00 85.72 L 699.42 85.72 L 702.83 85.72 L 706.25 85.72 L 709.67 85.72 L 713.08 85.72 L 716.50 85.72 L 719.92 85.72 L 723.33 85.72 L 726.75 85.72 L 730.17 85.72 L 733.58 85.72 L 737.00 85.72 L 740.42 85.72 L 743.83 85.72 L 747.25 85.72 L 750.67 85.72 L 754.08 85.72 L 757.50 85.72 L 760.92 85.72 L 764.33 85.72 L 767.75 85.72 L 771.17 85.72 L 774.58 85.72 L 778.00 85.72 L 781.42 85.72 L 784.83 85.72 L 788.25 85.72 L 791.67 85.72 L 795.08 85.72 L 798.50 85.72 L 801.92 85.72 L 805.33 85.72 L 808.75 85.72 L 812.17 85.72 L 815.58 85.72 L 819.00 85.72 L 822.42 85.72 L 825.83 85.72 L 829.25 85.72 L 832.67 85.72 L 836.08 85.72 L 839.50 85.72 L 842.92 85.72 L 846.33 85.72 L 849.75 85.72 L 853.17 85.72 L 856.58 85.72 L 860.00 85.72" fill="none" stroke="#3fb950" stroke-width="2"/>
    <circle cx="860.00" cy="85.72" r="3" fill="#3fb950"/>
    <text x="40.00" y="235.00" font-size="9" fill="#c9d1d9" text-anchor="middle" transform="rotate(-45 40.00 235.00)">09.08.2025</text><text x="122.00" y="235.00" font-size="9" fill="#c9d1d9" text-anchor="middle" transform="rotate(-45 122.00 235.00)">18.08.2025</text><text x="204.00" y="235.00" font-size="9" fill="#c9d1d9" text-anchor="middle" transform="rotate(-45 204.00 235.00)">29.08.2025</text><text x="286.00" y="235.00" font-size="9" fill="#c9d1d9" text-anchor="middle" transform="rotate(-45 286.00 235.00)">21.09.2025</text><text x="368.00" y="235.00" font-size="9" fill="#c9d1d9" text-anchor="middle" transform="rotate(-45 368.00 235.00)">14.10.2025</text><text x="450.00" y="235.00" font-size="9" fill="#c9d1d9" text-anchor="middle" transform="rotate(-45 450.00 235.00)">07.11.2025</text><text x="532.00" y="235.00" font-size="9" fill="#c9d1d9" text-anchor="middle" transform="rotate(-45 532.00 235.00)">01.12.2025</text><text x="614.00" y="235.00" font-size="9" fill="#c9d1d9" text-anchor="middle" transform="rotate(-45 614.00 235.00)">18.12.2025</text><text x="696.00" y="235.00" font-size="9" fill="#c9d1d9" text-anchor="middle" transform="rotate(-45 696.00 235.00)">11.01.2026</text><text x="778.00" y="235.00" font-size="9" fill="#c9d1d9" text-anchor="middle" transform="rotate(-45 778.00 235.00)">04.02.2026</text><text x="860.00" y="235.00" font-size="9" fill="#c9d1d9" text-anchor="middle" transform="rotate(-45 860.00 235.00)">28.02.2026</text>
  </g>
</svg>